<?xml version="1.0" encoding="UTF-8"?>
<svg width="36px" height="36px" viewBox="0 0 36 36" version="1.1" xmlns="http://www.w3.org/2000/svg" xmlns:xlink="http://www.w3.org/1999/xlink">
    <title>编组 4</title>
    <g id="app" stroke="none" stroke-width="1" fill="none" fill-rule="evenodd">
        <g id="登录" transform="translate(-23.000000, -560.000000)">
            <g id="编组-4" transform="translate(23.000000, 560.000000)">
                <g id="编组" transform="translate(5.000000, 3.000000)" fill="#333333">
                    <path d="M21.0124417,10.4971053 L21.0124417,8.74823648 C20.9639139,4.15867424 16.7929337,0.00396049779 12.2025564,0.00396049779 C7.59594664,0.00396049779 3.55971684,4.13795907 3.52368604,8.74823648 L3.52368604,10.4971053 C1.42225205,10.661604 0.0259484735,12.5876383 0.0259484735,14.7574323 L0.0259484735,26.2370262 C0.0259484735,28.5131806 1.85631952,29.7346958 4.10371049,29.7346958 L20.4325192,29.7346958 C22.6826269,29.7346958 24.5101793,27.8827266 24.5101793,25.6065722 L24.5101793,14.7574663 C24.5101793,12.5435592 23.1764966,10.5924289 21.0124417,10.4971053 Z M5.27258877,8.74823648 C5.30206543,5.04701492 8.55617914,1.7527274 12.2680639,1.7527274 C15.9677233,1.7527274 19.2247236,5.05924029 19.263573,8.74823648 L19.263573,10.4971053 L5.27258877,10.4971053 L5.27258877,8.74823648 Z M22.7613106,26.2370601 C22.7613106,27.6030041 21.4865472,27.9859289 20.1379904,27.9859289 L4.39813739,27.9859289 C3.04958058,27.9859289 1.77481722,27.6030041 1.77481722,26.2370601 L1.77481722,14.8693621 C1.77481722,13.503486 3.04886744,12.2460419 4.39813742,12.2460419 L20.1379904,12.2460419 C21.4872604,12.2460419 22.7613106,13.503486 22.7613106,14.8693621 L22.7613106,26.2370601 Z" id="形状"></path>
                </g>
                <path d="M17.2680639,19.6182648 C16.785129,19.6182648 16.3936125,20.0097474 16.3936125,20.4926143 L16.3936125,25.7392207 C16.3936125,26.2221556 16.7850951,26.61374 17.2680639,26.61374 C17.7509988,26.61374 18.1425153,26.2221556 18.1425153,25.7392207 L18.1425153,20.4926143 C18.1425153,20.0097474 17.7510327,19.6182648 17.2680639,19.6182648 Z" id="路径" fill="#FCD002"></path>
            </g>
        </g>
    </g>
</svg>