<?xml version="1.0" standalone="no"?><!DOCTYPE svg PUBLIC "-//W3C//DTD SVG 1.1//EN" "http://www.w3.org/Graphics/SVG/1.1/DTD/svg11.dtd"><svg t="1590680613924" class="icon" viewBox="0 0 1024 1024" version="1.1" xmlns="http://www.w3.org/2000/svg" p-id="5806" xmlns:xlink="http://www.w3.org/1999/xlink" width="88" height="88"><defs><style type="text/css"></style></defs><path d="M73.142857 109.714286h877.714286v621.714285h-256l-182.857143 146.285715-182.857143-146.285715H73.142857z" fill="#FCD002" p-id="5807"></path><path d="M274.285714 377.124571c-32.804571 0-59.428571 27.245714-59.428571 60.818286s26.624 60.818286 59.428571 60.818286 59.428571-27.245714 59.428572-60.818286-26.624-60.818286-59.428572-60.818286z m237.714286 0c-32.804571 0-59.428571 27.245714-59.428571 60.818286s26.624 60.818286 59.428571 60.818286 59.428571-27.245714 59.428571-60.818286-26.624-60.818286-59.428571-60.818286z m237.714286 0c-32.804571 0-59.428571 27.245714-59.428572 60.818286s26.624 60.818286 59.428572 60.818286c32.841143 0 59.428571-27.245714 59.428571-60.818286s-26.587429-60.818286-59.428571-60.818286zM868.571429 73.142857H155.428571C89.782857 73.142857 36.571429 127.597714 36.571429 194.742857v456.009143c0 67.145143 54.418286 129.060571 121.563428 129.060571h181.138286c31.561143 33.170286 162.230857 166.582857 162.230857 166.582858a14.592 14.592 0 0 0 20.992 0s95.670857-106.971429 157.988571-166.582858h185.417143c67.108571 0 121.526857-61.915429 121.526857-129.097142V194.779429C987.428571 127.634286 934.217143 73.142857 868.571429 73.142857z m60.013714 577.828572c0 33.609143-28.598857 68.864-62.208 68.864h-182.564572c-22.089143 0-41.984 22.454857-41.984 22.454857l-128.182857 131.108571-128.146285-131.108571s-24.393143-22.454857-45.348572-22.454857h-182.491428c-33.645714 0-62.244571-35.254857-62.244572-68.900572V194.304c0-33.645714 26.660571-60.891429 59.501714-60.891429h714.166858c32.841143 0 59.501714 27.282286 59.501714 60.891429V650.971429z" fill="#333333" p-id="5808"></path></svg>