<?xml version="1.0" encoding="UTF-8"?>
<svg width="29px" height="28px" viewBox="0 0 29 28" version="1.1" xmlns="http://www.w3.org/2000/svg" xmlns:xlink="http://www.w3.org/1999/xlink">
    <title>编组</title>
    <g id="app" stroke="none" stroke-width="1" fill="none" fill-rule="evenodd">
        <g id="规范_内容_按钮置灰" transform="translate(-50.000000, -1121.000000)" fill="#999999" fill-rule="nonzero">
            <g id="编组-2" transform="translate(51.000000, 1114.000000)">
                <g id="编组" transform="translate(0.000000, 7.000000)">
                    <path d="M13.90625,27.7875 C12.034375,27.7875 10.215625,27.421875 8.503125,26.696875 C6.85,25.996875 5.365625,24.996875 4.090625,23.721875 C2.815625,22.446875 1.815625,20.9625 1.115625,19.309375 C0.39375,17.596875 0.025,15.78125 0.025,13.90625 C0.025,12.03125 0.390625,10.215625 1.115625,8.503125 C1.815625,6.85 2.815625,5.365625 4.090625,4.090625 C5.365625,2.815625 6.85,1.815625 8.503125,1.115625 C10.215625,0.390625 12.03125,0.025 13.90625,0.025 C15.778125,0.025 17.596875,0.390625 19.309375,1.115625 C20.9625,1.815625 22.446875,2.815625 23.721875,4.090625 C24.996875,5.365625 25.996875,6.85 26.696875,8.503125 C27.421875,10.215625 27.7875,12.034375 27.7875,13.90625 C27.7875,15.778125 27.421875,17.596875 26.696875,19.309375 C25.996875,20.9625 24.996875,22.446875 23.721875,23.721875 C22.446875,24.996875 20.9625,25.996875 19.309375,26.696875 C17.596875,27.41875 15.78125,27.7875 13.90625,27.7875 Z M13.90625,1.775 C7.215625,1.775 1.775,7.215625 1.775,13.90625 C1.775,20.596875 7.215625,26.0375 13.90625,26.0375 C20.596875,26.0375 26.0375,20.596875 26.0375,13.90625 C26.0375,7.215625 20.596875,1.775 13.90625,1.775 Z" id="形状"></path>
                    <path d="M13.303125,6.321875 C13.6875,5.9375 14.265625,5.821875 14.76875,6.03125 C15.271875,6.240625 15.6,6.73125 15.6,7.275 C15.60625,7.63125 15.4625,7.975 15.20625,8.221875 C14.678125,8.74375 13.83125,8.74375 13.303125,8.221875 C13.05,7.975 12.90625,7.6375 12.903125,7.284375 C12.9,6.93125 13.0375,6.59375 13.284375,6.340625 L13.303125,6.321875 L13.303125,6.321875 Z M15.5125,21.65 C14.671875,22.009375 13.709375,21.95 12.91875,21.490625 C12.490625,21.03125 12.29375,20.4 12.384375,19.778125 C12.384375,19.50625 13.215625,14.634375 13.215625,14.634375 C13.275,14.3125 13.325,14 13.3625,13.715625 C13.4,13.45625 13.421875,13.190625 13.425,12.928125 C13.453125,12.615625 13.390625,12.303125 13.240625,12.03125 C13.059375,11.8375 12.796875,11.740625 12.534375,11.775 C12.353125,11.775 12.171875,11.815625 12.00625,11.89375 C11.846875,11.95625 11.69375,12.03125 11.546875,12.1125 L11.034375,11.35 C11.4375,11.1125 11.853125,10.890625 12.278125,10.69375 C12.63125,10.525 13.0125,10.434375 13.403125,10.421875 C13.971875,10.390625 14.521875,10.6375 14.878125,11.084375 C15.24375,11.584375 15.425,12.196875 15.396875,12.815625 C15.396875,12.9625 15.29375,14.29375 15.228125,14.603125 L14.56875,17.95625 C14.509375,18.2625 14.459375,18.56875 14.425,18.878125 C14.3875,19.140625 14.365625,19.403125 14.359375,19.665625 C14.328125,19.98125 14.4,20.3 14.56875,20.56875 C14.759375,20.75625 15.025,20.846875 15.290625,20.8125 C15.63125,20.740625 15.959375,20.628125 16.275,20.48125 L16.784375,20.971875 C16.25625,21.271875 16.084375,21.35625 15.51875,21.65625 L15.51875,21.65 L15.5125,21.65 Z" id="形状"></path>
                </g>
            </g>
        </g>
    </g>
</svg>