<?xml version="1.0" standalone="no"?><!DOCTYPE svg PUBLIC "-//W3C//DTD SVG 1.1//EN" "http://www.w3.org/Graphics/SVG/1.1/DTD/svg11.dtd"><svg t="1590680606569" class="icon" viewBox="0 0 1024 1024" version="1.1" xmlns="http://www.w3.org/2000/svg" p-id="5670" xmlns:xlink="http://www.w3.org/1999/xlink" width="88" height="88"><defs><style type="text/css"></style></defs><path d="M508.562286 1016.246857a506.404571 506.404571 0 0 1-358.985143-148.699428 506.404571 506.404571 0 0 1-148.662857-358.985143A506.404571 506.404571 0 0 1 149.613714 149.577143 506.404571 506.404571 0 0 1 508.562286 0.950857a506.404571 506.404571 0 0 1 358.985143 148.699429 506.404571 506.404571 0 0 1 148.699428 358.948571 506.404571 506.404571 0 0 1-148.699428 358.985143 506.404571 506.404571 0 0 1-358.985143 148.699429z" fill="#FCD002" p-id="5671"></path><path d="M508.562286 1016.246857a506.404571 506.404571 0 0 1-358.985143-148.699428 506.404571 506.404571 0 0 1-148.662857-358.985143A506.404571 506.404571 0 0 1 149.613714 149.577143 506.404571 506.404571 0 0 1 508.562286 0.950857a506.404571 506.404571 0 0 1 358.985143 148.699429 506.404571 506.404571 0 0 1 148.699428 358.948571 506.404571 506.404571 0 0 1-148.699428 358.985143 506.404571 506.404571 0 0 1-358.985143 148.699429z m0-951.332571c-244.662857 0-443.648 198.948571-443.648 443.648 0 244.662857 198.948571 443.684571 443.648 443.684571 244.662857 0 443.684571-198.985143 443.684571-443.684571 0-244.662857-198.985143-443.648-443.684571-443.648z" fill="#333333" p-id="5672"></path><path d="M486.509714 231.204571a49.298286 49.298286 0 0 1 84.004572 34.852572c0.219429 13.019429-5.010286 25.6-14.409143 34.633143a49.444571 49.444571 0 0 1-84.224-34.304c-0.109714-12.909714 4.900571-25.234286 13.933714-34.486857l0.731429-0.731429z m80.822857 560.566858c-30.756571 13.165714-65.974857 10.971429-94.866285-5.851429a75.885714 75.885714 0 0 1-19.565715-62.610286c0-9.947429 30.427429-188.123429 30.427429-188.123428 2.157714-11.776 3.986286-23.186286 5.376-33.572572 1.353143-9.508571 2.157714-19.2 2.267429-28.818285a57.197714 57.197714 0 0 0-6.729143-32.804572 30.061714 30.061714 0 0 0-25.856-9.362286c-6.582857 0-13.238857 1.462857-19.309715 4.352-5.851429 2.267429-11.410286 5.010286-16.822857 8.009143l-18.724571-27.904c14.738286-8.667429 29.988571-16.822857 45.494857-23.990857 12.909714-6.180571 26.843429-9.508571 41.142857-9.947428a64.512 64.512 0 0 1 53.942857 24.210285c13.385143 18.285714 20.004571 40.704 18.980572 63.341715 0 5.339429-3.766857 54.052571-6.180572 65.353142l-24.137143 122.624c-2.157714 11.190857-3.986286 22.418286-5.229714 33.718858a244.662857 244.662857 0 0 0-2.413714 28.818285c-1.097143 11.52 1.499429 23.186286 7.68 33.024a31.817143 31.817143 0 0 0 26.404571 8.923429c12.434286-2.633143 24.429714-6.765714 35.986286-12.141714l18.651429 17.92c-19.346286 10.971429-25.6 14.08-46.299429 25.051428v-0.219428h-0.256z" fill="#333333" p-id="5673"></path></svg>