<?xml version="1.0" standalone="no"?><!DOCTYPE svg PUBLIC "-//W3C//DTD SVG 1.1//EN" "http://www.w3.org/Graphics/SVG/1.1/DTD/svg11.dtd"><svg t="1592837969254" class="icon" viewBox="0 0 1024 1024" version="1.1" xmlns="http://www.w3.org/2000/svg" p-id="5940" xmlns:xlink="http://www.w3.org/1999/xlink" width="88" height="88"><defs><style type="text/css"></style></defs><path d="M788.053333 1021.297778a61.44 61.44 0 0 1-29.639111-7.566222l-0.284444-0.142223-240.839111-133.489777a13.312 13.312 0 0 0-13.084445 0l-241.237333 132.693333a61.44 61.44 0 0 1-65.137778-3.783111 62.008889 62.008889 0 0 1-25.201778-60.131556l47.189334-287.089778a13.681778 13.681778 0 0 0-3.640889-11.605333L18.631111 446.833778a61.212444 61.212444 0 0 1-14.165333-62.577778c7.395556-21.959111 26.168889-37.603556 49.095111-41.130667l270.791111-40.846222a13.795556 13.795556 0 0 0 10.24-7.566222l122.311111-258.759111A61.667556 61.667556 0 0 1 512.398222 0.768h0.142222c23.751111 0 45.596444 14.023111 55.552 35.441778l121.230223 259.470222c1.905778 4.039111 5.688889 6.855111 10.126222 7.68l270.222222 41.671111a61.155556 61.155556 0 0 1 48.952889 41.244445 61.610667 61.610667 0 0 1-14.279111 62.435555l-198.257778 202.524445a13.681778 13.681778 0 0 0-3.612444 11.633777l44.771555 278.186667c2.844444 8.760889 3.498667 17.92 2.275556 27.363556-4.039111 30.492444-30.72 52.878222-61.496889 52.878222z m-3.896889-54.897778c1.223111 0.682667 2.56 0.938667 3.783112 0.938667h0.654222a7.338667 7.338667 0 0 0 7.424-6.343111c0.142222-1.479111 0-2.844444-0.398222-3.896889l-0.938667-2.56-49.891556-310.044445a13.681778 13.681778 0 0 1 3.640889-11.576889l217.230222-221.952a7.964444 7.964444 0 0 0 1.763556-7.68 7.480889 7.480889 0 0 0-6.087111-5.006222l-298.808889-46.108444a13.198222 13.198222 0 0 1-10.126222-7.68L519.054222 59.022222a7.424 7.424 0 0 0-6.883555-4.323555 7.822222 7.822222 0 0 0-6.883556 4.323555l-134.314667 284.785778a13.539556 13.539556 0 0 1-10.24 7.566222l-299.235555 45.027556a7.651556 7.651556 0 0 0-4.295111 12.8l216.689778 222.919111c2.958222 3.100444 4.323556 7.395556 3.640888 11.576889L225.877333 957.639111c-0.398222 2.844444 0.682667 5.660444 3.128889 7.395556a6.883556 6.883556 0 0 0 4.295111 1.365333c1.223111 0 2.56-0.284444 3.640889-0.938667l267.406222-147.000889a13.312 13.312 0 0 1 13.084445 0l266.723555 147.939556z" fill="#666666" p-id="5941"></path></svg>