<?xml version="1.0" encoding="UTF-8"?>
<svg width="36px" height="36px" viewBox="0 0 36 36" version="1.1" xmlns="http://www.w3.org/2000/svg" xmlns:xlink="http://www.w3.org/1999/xlink">
    <title>编组</title>
    <g id="app" stroke="none" stroke-width="1" fill="none" fill-rule="evenodd">
        <g id="规范_内容" transform="translate(-603.000000, -501.000000)" fill="#FCD002" fill-rule="nonzero">
            <g id="编组-8" transform="translate(603.000000, 501.000000)">
                <path d="M27.7054815,35.9045185 L27.7054815,35.9045185 C27.3404445,35.9045185 26.9801482,35.8144445 26.6625186,35.639037 L26.6530371,35.6342963 L18.1860741,30.9409629 C18.0438519,30.8603703 17.8684445,30.8603703 17.7262223,30.9409629 L9.24503705,35.6058518 C8.9274074,35.7812592 8.5671111,35.8713333 8.2020741,35.8713333 C7.75170375,35.8713333 7.3202963,35.7338518 6.9552593,35.4731111 C6.28681485,34.9990371 5.93600005,34.1694074 6.0687408,33.3587408 L7.72800005,23.2657037 C7.75170375,23.1187408 7.70429635,22.9670371 7.60000005,22.858 L0.6548148,15.708963 C0.0859259,15.1258519 -0.1037037,14.282 0.157037,13.5092593 C0.41777775,12.7365185 1.0767407,12.1865926 1.88266665,12.0633333 L11.4020741,10.6268889 C11.5585185,10.6031852 11.6912593,10.5036296 11.7623704,10.3614074 L16.0622222,1.26392585 C16.4177778,0.51014805 17.1857778,0.0265925 18.0154074,0.0265925 L18.0201482,0.0265925 C18.8545185,0.0265925 19.6225185,0.51962955 19.9733334,1.2734073 L24.2352593,10.3945925 C24.3016297,10.5368147 24.4343704,10.6363703 24.5908149,10.6648147 L34.0912593,12.1297036 C34.8924445,12.2529629 35.5561482,12.8076296 35.8121482,13.5803703 C36.0681482,14.353111 35.8737779,15.1922221 35.3096297,15.7753332 L28.3407408,22.895926 C28.2364445,23.004963 28.1890371,23.1566667 28.2127408,23.3036297 L29.7866667,33.0837778 C29.7866667,33.0837778 29.7866667,33.0837778 29.7866667,33.0837778 C29.8862223,33.391926 29.909926,33.7142963 29.8672593,34.0461482 C29.7250371,35.1175556 28.7863704,35.9045185 27.7054815,35.9045185 Z" id="形状"></path>
                <path d="M32.1677907,10 L32.1677907,10 C32.0864027,10 32.0060717,9.97991544 31.9352536,9.94080338 L31.9331396,9.93974629 L30.0453614,8.89323466 C30.0136518,8.87526426 29.9745433,8.87526426 29.9428337,8.89323466 L28.0518844,9.9334038 C27.9810663,9.97251585 27.9007353,9.99260042 27.8193474,9.99260042 C27.7189336,9.99260042 27.6227478,9.96194502 27.5413599,9.9038055 C27.3923247,9.79809726 27.3141077,9.61310783 27.3437034,9.43234673 L27.7136487,7.18181819 C27.7189336,7.14904864 27.7083638,7.115222 27.6851101,7.0909091 L26.1366245,5.49682876 C26.0097861,5.36680762 25.9675066,5.17864695 26.0256409,5.00634251 C26.0837752,4.83403807 26.2306963,4.71141651 26.4103841,4.68393235 L28.5328134,4.36363637 C28.5676939,4.35835096 28.5972896,4.33615223 28.6131444,4.30443975 L29.5718313,2.27589852 C29.6511053,2.10782241 29.8223372,2 30.0073098,2 L30.0083668,2 C30.1943965,2 30.3656283,2.10993658 30.4438454,2.27801268 L31.3940764,4.31183932 C31.4088742,4.34355179 31.4384699,4.36575053 31.4733504,4.37209301 L33.5915518,4.69873149 C33.7701825,4.72621563 33.9181607,4.84989429 33.975238,5.02219872 C34.0323152,5.19450316 33.9889788,5.38160675 33.8631974,5.51162789 L32.3094269,7.09936577 C32.2861732,7.12367867 32.2756033,7.1575053 32.2808883,7.19027486 L32.6318078,9.37103595 C32.6318078,9.37103595 32.6318078,9.37103595 32.6318078,9.37103595 C32.6540046,9.43974631 32.6592895,9.51162791 32.6497766,9.58562368 C32.618067,9.82452432 32.4087836,10 32.1677907,10 Z" id="形状备份" transform="translate(30.000000, 6.000000) rotate(-330.000000) translate(-30.000000, -6.000000) "></path>
            </g>
        </g>
    </g>
</svg>