<?xml version="1.0" encoding="UTF-8"?>
<svg width="36px" height="36px" viewBox="0 0 36 36" version="1.1" xmlns="http://www.w3.org/2000/svg" xmlns:xlink="http://www.w3.org/1999/xlink">
    <title>编组 5</title>
    <g id="app" stroke="none" stroke-width="1" fill="none" fill-rule="evenodd">
        <g id="登录" transform="translate(-23.000000, -719.000000)">
            <g id="编组-5" transform="translate(23.000000, 719.000000)">
                <g id="编组" transform="translate(5.000000, 6.000000)" fill="#231815" fill-rule="nonzero">
                    <path d="M25.5397647,9.15814902 C25.1542588,8.91720784 24.6884392,8.9011451 24.2868706,9.10996078 L23.3712941,9.59184314 L23.2938039,1.60627451 C23.2938039,0.722823529 22.5709804,0 21.6875294,0 L4.32370196,0 C3.44025098,0 2.71742745,0.722823529 2.71742745,1.60627451 L2.79491765,9.64003137 L1.89540392,9.15814902 C1.49383529,8.94933333 1.01195294,8.94933333 0.626447059,9.19027451 C0.240941176,9.43121569 0,9.83278431 0,10.2986039 L0,22.6990431 C0,23.9358745 1.01195294,24.9478275 2.24878431,24.9478275 L23.9174275,24.9478275 C25.1542588,24.9478275 26.1662118,23.9358745 26.1662118,22.6990431 L26.1662118,10.2664784 C26.1662118,9.80065882 25.9252706,9.3990902 25.5397647,9.15814902 Z M4.00244706,1.60627451 C4.00244706,1.42958431 4.14701176,1.28501961 4.32370196,1.28501961 L21.6714667,1.28501961 C21.8481569,1.28501961 21.9927216,1.42958431 21.9927216,1.60627451 L22.0702118,10.2825412 L13.3320784,14.828298 C13.042949,14.9728627 12.7056314,14.9728627 12.4325647,14.828298 L4.07993725,10.3307294 L4.00244706,1.60627451 Z M23.9174275,23.6306824 L2.24878431,23.6306824 C1.71871373,23.6306824 1.28501961,23.1969882 1.28501961,22.6669176 L1.28501961,10.2825412 L11.8382431,15.9526902 C12.4968157,16.3060706 13.2838902,16.3060706 13.9424627,15.9687529 L24.8811922,10.2664784 L24.8811922,22.6669176 C24.8811922,23.1969882 24.447498,23.6306824 23.9174275,23.6306824 Z" id="形状"></path>
                </g>
                <rect id="矩形" fill="#FCD002" x="12" y="10" width="11" height="2" rx="1"></rect>
                <rect id="矩形备份-4" fill="#FCD002" x="12" y="14" width="11" height="2" rx="1"></rect>
            </g>
        </g>
    </g>
</svg>