<?xml version="1.0" encoding="UTF-8"?>
<svg width="36px" height="36px" viewBox="0 0 36 36" version="1.1" xmlns="http://www.w3.org/2000/svg" xmlns:xlink="http://www.w3.org/1999/xlink">
    <title>编组</title>
    <g id="app" stroke="none" stroke-width="1" fill="none" fill-rule="evenodd">
        <g id="登录" transform="translate(-23.000000, -377.000000)">
            <g id="编组-3" transform="translate(23.000000, 377.000000)">
                <path d="M26.0396484,2 L10.3599379,2 C8.56797104,2 7,3.56797104 7,5.35993794 L7,29.9994829 C7,31.7914498 8.56797104,33.3594208 10.3599379,33.3594208 L26.0396484,33.3594208 C27.8316153,33.3594208 29.3995863,31.7914498 29.3995863,29.9994829 L29.3995863,5.35993794 C29.3995863,3.56797104 27.8316153,2 26.0396484,2 Z M10.3003646,3.89046154 L25.980075,3.89046154 C26.7116359,4.23995863 27.1597865,4.68795036 27.5227869,5.37963687 L27.5426447,22.5367668 L8.91476747,22.5764824 L8.89490968,5.41935245 C9.23995863,4.68795036 9.68795036,4.23995863 10.3003646,3.89046154 Z M10.260649,31.4796031 C9.68795036,31.1191445 9.23995863,30.6714705 8.90634777,29.9796251 L8.90634777,24.3797285 L27.5329541,24.3797285 L27.5329541,29.9796251 C27.1596277,30.6714705 26.7116359,31.1191445 25.9403594,31.4796031 L10.260649,31.4796031 Z" id="形状" fill="#333333"></path>
                <path d="M17.0847778,27.7692049 C17.0841428,28.6350045 17.7856788,29.3376525 18.6514784,29.3381298 C19.5174369,29.3389234 20.2199261,28.6373875 20.2205615,27.771429 L20.2205615,27.7692049 C20.2205615,26.9032464 19.5183901,26.2012339 18.6527493,26.2012339 C17.7867908,26.2012339 17.0847778,26.9032464 17.0847778,27.7692049 Z" id="路径" fill="#FCD002"></path>
            </g>
        </g>
    </g>
</svg>