<?xml version="1.0" encoding="UTF-8"?>
<svg width="29px" height="29px" viewBox="0 0 29 29" version="1.1" xmlns="http://www.w3.org/2000/svg" xmlns:xlink="http://www.w3.org/1999/xlink">
    <title>形状 2</title>
    <g id="app" stroke="none" stroke-width="1" fill="none" fill-rule="evenodd">
        <g id="规范_内容_按钮置灰" transform="translate(-331.000000, -1121.000000)" fill="#999999" fill-rule="nonzero">
            <g id="形状-2" transform="translate(331.016807, 1121.004202)">
                <path d="M26.815126,1 L3.1512605,1 C1.96322688,1 1,1.96322688 1,3.1512605 L1,24.6638655 C1,25.8518991 1.96322688,26.815126 3.1512605,26.815126 L26.8151261,26.815126 C28.0031597,26.815126 28.9663866,25.8518991 28.9663866,24.6638655 L28.9663866,3.1512605 C28.9663866,1.96322688 28.0031596,1 26.815126,1 Z M26.8151261,24.6638656 L3.1512605,24.6638656 L3.1512605,3.1512605 L26.8151261,3.1512605 L26.8151261,24.6638656 Z M8.52941176,10.6806723 C9.71744538,10.6806723 10.6806723,9.71744538 10.6806723,8.52941176 C10.6806723,7.34035629 9.71744538,6.37815126 8.52941176,6.37815126 C7.34245379,6.37815126 6.37815126,7.34035629 6.37815126,8.52941176 C6.37815126,9.71744538 7.34245376,10.6806723 8.52941176,10.6806723 Z M19.2857143,9.51576471 L12.9107227,19.1712134 L9.605042,14.2416 L4.22689074,22.5126051 L25.7394958,22.5126051 L19.2857143,9.51576471 Z" id="形状"></path>
            </g>
        </g>
    </g>
</svg>