<?xml version="1.0" standalone="no"?><!DOCTYPE svg PUBLIC "-//W3C//DTD SVG 1.1//EN" "http://www.w3.org/Graphics/SVG/1.1/DTD/svg11.dtd"><svg t="1590680623611" class="icon" viewBox="0 0 1097 1024" version="1.1" xmlns="http://www.w3.org/2000/svg" p-id="5941" xmlns:xlink="http://www.w3.org/1999/xlink" width="94.2734375" height="88"><defs><style type="text/css"></style></defs><path d="M109.714286 73.142857h877.714285v877.714286H109.714286z" fill="#FCD002" p-id="5942"></path><path d="M981.284571 36.717714H115.858286a78.665143 78.665143 0 0 0-78.665143 78.665143v786.761143c0 43.446857 35.218286 78.665143 78.665143 78.665143h865.426285a78.665143 78.665143 0 0 0 78.665143-78.628572V115.346286a78.665143 78.665143 0 0 0-78.665143-78.628572z m0 865.426286H115.858286V115.382857h865.426285v786.761143zM312.539429 390.765714a78.665143 78.665143 0 1 0 0-157.366857 78.665143 78.665143 0 0 0 0 157.366857zM705.938286 348.16l-233.142857 353.097143-120.905143-180.297143-196.681143 302.518857h786.724571L705.938286 348.16z" fill="#333333" p-id="5943"></path></svg>