<?xml version="1.0" standalone="no"?><!DOCTYPE svg PUBLIC "-//W3C//DTD SVG 1.1//EN" "http://www.w3.org/Graphics/SVG/1.1/DTD/svg11.dtd"><svg t="1592838332638" class="icon" viewBox="0 0 1024 1024" version="1.1" xmlns="http://www.w3.org/2000/svg" p-id="6392" xmlns:xlink="http://www.w3.org/1999/xlink" width="88" height="88"><defs><style type="text/css"></style></defs><path d="M981.184 515.776c-20.16 0-33.568 16.8-33.568 33.6v322.272c0 40.32-33.6 73.888-77.216 73.888H145.216c-40.32 0-77.216-33.6-77.216-73.888V193.472c0-40.32 33.568-73.856 77.216-73.856h238.368c20.16 0 33.6-16.8 33.6-33.6 0-20.128-16.832-33.568-33.6-33.568h-238.4a143.296 143.296 0 0 0-144.32 144.384v678.176a143.296 143.296 0 0 0 144.32 144.384H870.4a143.296 143.296 0 0 0 144.352-144.384V552.704c0-23.488-13.44-36.928-33.568-36.928m-721.824 198.08c-3.36 20.16 10.08 36.928 26.88 40.32h6.72c16.768 0 30.176-10.112 33.536-26.88 0 0 26.88-144.384 124.224-288.736 53.728-83.936 120.864-147.712 198.08-198.08 73.888-43.648 157.824-73.856 248.448-83.936l-110.784 114.144c-13.44 13.44-13.44 33.6 0 47.008 6.72 6.72 16.8 10.08 23.488 10.08 10.08 0 16.8-3.36 23.52-10.08l174.592-177.92v-3.392L739.456 2.112c-16.768-6.72-36.928 3.328-43.648 20.16-6.72 16.768 3.36 36.896 23.52 43.616l100.704 33.6c-77.216 16.768-144.352 46.976-208.16 83.904-83.936 53.728-161.152 124.224-221.568 218.24-100.736 154.432-130.944 305.504-130.944 312.224" fill="#666666" p-id="6393"></path></svg>