<?xml version="1.0" encoding="UTF-8"?>
<svg width="88px" height="88px" viewBox="0 0 88 88" version="1.1" xmlns="http://www.w3.org/2000/svg" xmlns:xlink="http://www.w3.org/1999/xlink">
    <title>编组</title>
    <g id="app" stroke="none" stroke-width="1" fill="none" fill-rule="evenodd">
        <g id="登录" transform="translate(-331.000000, -1166.000000)" fill-rule="nonzero">
            <g id="编组" transform="translate(331.000000, 1166.000000)">
                <path d="M0,44 C0,68.300529 19.699471,88 44,88 C68.300529,88 88,68.300529 88,44 C88,19.699471 68.300529,0 44,0 C19.699471,0 0,19.699471 0,44 Z" id="路径" fill="#1BB723"></path>
                <path d="M71,50.033064 C71,42.3019489 63.2334499,36 54.5112868,36 C45.2749487,36 38,42.3019489 38,50.033064 C38,57.7772965 45.2749487,64.0661281 54.5112868,64.0661281 C56.4438322,64.0661281 58.3933078,63.5807862 60.3352588,63.0960689 L65.6601049,66 L64.2009767,61.1671941 C68.0967926,58.2557674 71,54.3936454 71,50.033064 L71,50.033064 Z M49.1575967,47.6132256 C48.1906969,47.6132256 47.2156456,46.6544099 47.2156456,45.6768552 C47.2156456,44.713667 48.1906969,43.7436079 49.1575967,43.7436079 C50.6255035,43.7436079 51.588014,44.713667 51.588014,45.6768552 C51.588014,46.65441 50.6255035,47.6132256 49.1575967,47.6132256 Z M59.8367599,47.6132256 C58.8755035,47.6132256 57.9079767,46.6544099 57.9079767,45.6768552 C57.9079767,44.713667 58.8755035,43.7436079 59.8367599,43.7436079 C61.2902447,43.7436079 62.265296,44.713667 62.265296,45.6768552 C62.265296,46.65441 61.2902448,47.6132256 59.8367599,47.6132256 Z" id="形状" fill="#FFFFFF"></path>
                <path d="M36.4134644,21 C25.7413577,21 17,28.3857908 17,37.7638351 C17,43.1777471 19.9083513,47.6232291 24.7681449,51.070356 L22.8261087,57 L29.6128887,53.5439592 C32.0415314,54.0323128 33.9892112,54.5340372 36.4128372,54.5340372 C37.0223494,54.5340372 37.626218,54.5028386 38.2250699,54.4557224 C37.8456925,53.1390141 37.6255909,51.7579986 37.6255909,50.3260466 C37.6255909,41.7139597 44.9090106,34.7254735 54.1307039,34.7254736 C54.7596553,34.7254736 55.382963,34.7732265 56,34.8419908 C54.3207062,26.9009923 45.959353,21 36.4134644,21 L36.4134644,21 Z M30.10702,34.3090678 C28.6522172,34.3090678 27.183619,33.3189898 27.183619,31.8418317 C27.183619,30.3583064 28.6522172,29.3815993 30.10702,29.3815993 C31.5618227,29.3815993 32.530019,30.3583064 32.530019,31.8418317 C32.530019,33.3189898 31.5618227,34.3090678 30.10702,34.3090678 Z M43.6931216,34.3090678 C42.2376918,34.3090678 40.7778724,33.3189898 40.7778724,31.8418317 C40.7778724,30.3583064 42.2376917,29.3815993 43.6931216,29.3815993 C45.1548221,29.3815993 46.1230186,30.3583064 46.1230186,31.8418317 C46.1236454,33.3189898 45.1548221,34.3090678 43.6931216,34.3090678 L43.6931216,34.3090678 Z" id="形状" fill="#FFFFFF"></path>
            </g>
        </g>
    </g>
</svg>