<?xml version="1.0" encoding="UTF-8"?>
<svg width="48px" height="48px" viewBox="0 0 48 48" version="1.1" xmlns="http://www.w3.org/2000/svg" xmlns:xlink="http://www.w3.org/1999/xlink">
    <title>形状 2</title>
    <defs>
        <path d="M23.516129,13.5789474 C15.5174457,13.5789474 9,19.9591837 9,27.7894737 C9,35.6197637 15.5174457,42 23.516129,42 C31.5148124,42 38.0322581,35.6197637 38.0322581,27.7894737 C38.0322581,19.9591837 31.5148124,13.5789474 23.516129,13.5789474 Z M27.8996532,34.4183724 L23.439578,32.1026624 L18.9039084,34.2977625 C18.9039084,34.2977625 18.7779176,34.3218845 18.6267286,34.2253966 C18.4755396,34.1289087 18.5007378,33.9841768 18.5007378,33.9841768 L19.4330699,29.2080248 L15.8297324,25.7344597 C15.8297324,25.7344597 15.7541379,25.6138498 15.779336,25.4691179 C15.8045342,25.324386 15.930525,25.2761421 15.930525,25.2761421 L21.0457524,24.6248486 L23.3639835,20.2828923 C23.3639835,20.2828923 23.439578,20.2105263 23.6159652,20.2105263 C23.7923523,20.2105263 23.893145,20.2828923 23.893145,20.2828923 L26.0853853,24.6730926 L31.1250182,25.4449959 C31.1250182,25.4449959 31.2258109,25.5173619 31.251009,25.6862157 C31.2762072,25.8309476 31.2258109,25.9515575 31.2258109,25.9515575 L27.5468788,29.2803907 L28.3280219,34.1289087 C28.3280219,34.1289087 28.3280219,34.2495186 28.1516348,34.3460065 C27.9752476,34.4424944 27.8996532,34.4183724 27.8996532,34.4183724 L27.8996532,34.4183724 Z M18.401638,6.75285168 C18.401638,6.46142523 18.5019221,6.21856984 18.6774194,6 L10.2786228,6 C9.5766338,6 9,6.55856738 9,7.23856245 L9,13.5770879 C9,13.9170854 9.15042621,14.257083 9.42620759,14.4999384 L11.2814641,16.1027839 C11.6324586,16.3942103 12.0837373,16.4913525 12.5099448,16.3699248 C14.1897042,14.7913648 16.1953869,13.5528024 18.401638,12.7513796 L18.401638,6.75285168 Z M27.1327755,6.71052632 C27.1327755,6.43548387 27.225256,6.20628183 27.3870968,6 L20.6129032,6 C20.774744,6.20628183 20.8672245,6.43548387 20.8672245,6.71052632 L20.8672245,11.6842105 C21.8845095,11.4779287 22.9480348,11.3633277 24.0346802,11.3633277 C25.0982054,11.3633277 26.1386106,11.4779287 27.1327755,11.6612903 L27.1327755,6.71052632 Z M37.7312381,6 L29.3225806,6 C29.4967244,6.21511347 29.5962352,6.45412844 29.5962352,6.7409464 L29.5962352,12.5968131 C31.9347375,13.4333655 34.0244631,14.7479479 35.765901,16.4210526 C36.0893109,16.4210526 36.3629654,16.3015451 36.5868646,16.0864317 L38.5770794,14.3655239 C38.8507339,14.1265089 39,13.791888 39,13.457267 L39,7.21897634 C39,6.54973443 38.4278133,6 37.7312381,6 L37.7312381,6 Z" id="path-1"></path>
        <filter x="-23.3%" y="-22.2%" width="153.3%" height="144.4%" filterUnits="objectBoundingBox" id="filter-2">
            <feOffset dx="1" dy="0" in="SourceAlpha" result="shadowOffsetOuter1"></feOffset>
            <feGaussianBlur stdDeviation="2.5" in="shadowOffsetOuter1" result="shadowBlurOuter1"></feGaussianBlur>
            <feColorMatrix values="0 0 0 0 1   0 0 0 0 0.843746341   0 0 0 0 0.112195122  0 0 0 0.44 0" type="matrix" in="shadowBlurOuter1"></feColorMatrix>
        </filter>
    </defs>
    <g id="app" stroke="none" stroke-width="1" fill="none" fill-rule="evenodd">
        <g id="规范" transform="translate(-43.000000, -1782.000000)" fill-rule="nonzero">
            <g id="形状-2" transform="translate(43.000000, 1782.000000)">
                <g id="形状">
                    <use fill="black" fill-opacity="1" filter="url(#filter-2)" xlink:href="#path-1"></use>
                    <use fill="#FCD002" xlink:href="#path-1"></use>
                </g>
            </g>
        </g>
    </g>
</svg>