<?xml version="1.0" encoding="UTF-8"?>
<svg width="60px" height="60px" viewBox="0 0 60 60" version="1.1" xmlns="http://www.w3.org/2000/svg" xmlns:xlink="http://www.w3.org/1999/xlink">
    <title>编组 9</title>
    <g id="app" stroke="none" stroke-width="1" fill="none" fill-rule="evenodd">
        <g id="规范" transform="translate(-439.000000, -434.000000)">
            <g id="编组-9" transform="translate(439.000000, 434.000000)">
                <rect id="矩形备份-28" fill="#E7BE00" opacity="0" x="0" y="0" width="60" height="60"></rect>
                <g id="编组-7备份-5" transform="translate(4.000000, 3.000000)">
                    <g id="编组-2">
                        <path d="M47.6177307,0.122917919 C50.173875,-0.51611814 52.65,1.41718187 52.65,4.05199504 L52.65,4.05199504 L52.65,44.551995 C52.65,46.410409 51.3851956,48.0303406 49.5822693,48.4810722 L49.5822693,48.4810722 L27.9822693,53.8810722 C27.3558041,54.0376885 26.7009705,54.0422357 26.0723907,53.8943346 L26.0723907,53.8943346 L3.1223907,48.4943346 C1.29294218,48.0638761 0,46.4314036 0,44.551995 L0,44.551995 L0,4.05199504 C0,1.44035511 2.43539415,-0.488512759 4.9776093,0.109655513 L4.9776093,0.109655513 L26.97165,5.28319504 Z M4.05,4.05199504 L4.05,44.551995 L24.975,49.475 L24.975,8.975 L4.05,4.05199504 Z M48.6,4.05199504 L29.025,8.945 L29.025,49.445 L48.6,44.551995 L48.6,4.05199504 Z" id="形状结合" fill="#000000" fill-rule="nonzero"></path>
                        <path d="M8.45009823,8.55650786 L21.9500982,12.1815079 C22.5399545,12.3398952 22.95,12.8745708 22.95,13.485322 L22.95,42.787683 C22.95,43.5332674 22.3455844,44.137683 21.6,44.137683 C21.4817817,44.137683 21.3640756,44.1221549 21.2499018,44.0914971 L7.74990177,40.4664971 C7.16004551,40.3081098 6.75,39.7734341 6.75,39.162683 L6.75,9.86032197 C6.75,9.11473755 7.35441559,8.51032197 8.1,8.51032197 C8.21821826,8.51032197 8.33592443,8.52585008 8.45009823,8.55650786 Z" id="路径-5" fill="#FCD002"></path>
                        <path d="M32.7766702,8.6016906 L44.9266702,12.1319194 C45.5033349,12.2994715 45.9,12.8277935 45.9,13.4283065 L45.9,42.7519223 C45.9,43.4975067 45.2955844,44.1019223 44.55,44.1019223 C44.4225419,44.1019223 44.2957261,44.0838721 44.1733298,44.0483094 L32.0233298,40.5180806 C31.4466651,40.3505285 31.05,39.8222065 31.05,39.2216935 L31.05,9.89807772 C31.05,9.15249331 31.6544156,8.54807772 32.4,8.54807772 C32.5274581,8.54807772 32.6542739,8.56612789 32.7766702,8.6016906 Z" id="路径-5备份" fill="#FCD002" transform="translate(38.475000, 26.325000) scale(1, -1) translate(-38.475000, -26.325000) "></path>
                    </g>
                    <g id="编组-6" transform="translate(33.300000, 17.550000)" fill="#000000">
                        <rect id="矩形" transform="translate(5.175000, 2.700000) rotate(-15.000000) translate(-5.175000, -2.700000) " x="0.45" y="1.35" width="9.45" height="2.7" rx="1.35"></rect>
                        <rect id="矩形备份-6" transform="translate(5.175000, 9.450000) rotate(-15.000000) translate(-5.175000, -9.450000) " x="0.45" y="8.1" width="9.45" height="2.7" rx="1.35"></rect>
                        <rect id="矩形备份-7" transform="translate(5.175000, 16.200000) rotate(-15.000000) translate(-5.175000, -16.200000) " x="0.45" y="14.85" width="9.45" height="2.7" rx="1.35"></rect>
                    </g>
                    <g id="编组-6备份" transform="translate(15.200000, 27.050000) scale(-1, 1) translate(-15.200000, -27.050000) translate(9.700000, 17.550000)" fill="#000000">
                        <rect id="矩形" transform="translate(5.175000, 2.700000) rotate(-15.000000) translate(-5.175000, -2.700000) " x="0.45" y="1.35" width="9.45" height="2.7" rx="1.35"></rect>
                        <rect id="矩形备份-6" transform="translate(5.175000, 9.450000) rotate(-15.000000) translate(-5.175000, -9.450000) " x="0.45" y="8.1" width="9.45" height="2.7" rx="1.35"></rect>
                        <rect id="矩形备份-7" transform="translate(5.175000, 16.200000) rotate(-15.000000) translate(-5.175000, -16.200000) " x="0.45" y="14.85" width="9.45" height="2.7" rx="1.35"></rect>
                    </g>
                </g>
            </g>
        </g>
    </g>
</svg>