<?xml version="1.0" encoding="UTF-8"?>
<svg width="60px" height="60px" viewBox="0 0 60 60" version="1.1" xmlns="http://www.w3.org/2000/svg" xmlns:xlink="http://www.w3.org/1999/xlink">
    <title>编组 10</title>
    <g id="app" stroke="none" stroke-width="1" fill="none" fill-rule="evenodd">
        <g id="规范" transform="translate(-627.000000, -434.000000)">
            <g id="编组-10" transform="translate(627.000000, 434.000000)">
                <rect id="矩形备份-25" fill="#E7BE00" opacity="0" x="0" y="0" width="60" height="60"></rect>
                <g id="编组-3" transform="translate(4.000000, 0.000000)">
                    <g id="编组备份-3" fill-rule="nonzero">
                        <path d="M27.2473207,60 L25.7173207,60 C25.4773207,60 25.2673207,59.97 25.0573207,59.88 L24.7873207,59.79 C-3.41267931,48.99 0.127320694,16.5 0.157320694,16.17 L0.307320694,14.85 C0.427320694,13.95 1.17732069,13.23 2.10732069,13.2 L3.42732069,13.14 C3.96732069,13.11 6.87732069,12.75 7.32732069,8.82 L7.44732069,7.86 C7.53732069,7.17 7.98732069,6.57 8.64732069,6.33 L9.54732069,6 C20.9473207,1.8 24.0373207,0.66 24.9073207,0.33 L24.9673207,0.3 C25.2673207,0.12 25.5973207,0 25.9573207,0 L26.4373207,0 C27.1873207,0 27.1873207,0 43.4173207,5.97 L44.3173207,6.3 C44.9773207,6.54 45.4573207,7.14 45.5473207,7.86 L45.6673207,8.82 C46.1173207,12.75 48.9973207,13.11 49.5673207,13.14 L50.8873207,13.2 C51.8173207,13.23 52.5673207,13.95 52.6873207,14.85 L52.8373207,16.17 C52.8673207,16.5 56.4073207,49.02 28.2073207,59.79 L27.9373207,59.88 C27.7273207,59.97 27.4873207,60 27.2473207,60 L27.2473207,60 Z M26.0773207,56.25 L26.8873207,56.25 C37.3873207,52.2 44.3173207,44.4 47.4973207,33.06 C49.6873207,25.2 49.2374331,18.27 49.1173207,16.86 C46.7773207,16.65 42.6373207,14.91 41.9173207,9.45 C31.0573207,5.46 27.2473207,4.05 26.3773207,3.78 L26.3473207,3.78 L26.3173207,3.81 C25.7173207,4.05 22.9873207,5.04 11.0173207,9.45 C10.2973207,14.85 6.30732069,16.65 3.81732069,16.86 C3.69720832,18.27 3.24732069,25.2 5.43732069,33.09 C8.64732069,44.43 15.5773207,52.23 26.0773207,56.25 Z" id="形状" fill="#000000"></path>
                        <path d="M26.9340134,50 L25.9029118,50 C25.7411704,50 25.5996466,49.9792857 25.4581229,49.9171429 L25.2761638,49.855 C6.27154691,42.3978571 8.65723286,19.9642857 8.67745054,19.7364286 L8.77853893,18.825 C8.85940964,18.2035714 9.36485158,17.7064286 9.99159958,17.6857143 L10.8811774,17.6442857 C11.2450956,17.6235714 13.2062103,17.375 13.5094755,14.6614286 L13.5903462,13.9985714 C13.6509992,13.5221429 13.9542644,13.1078571 14.3990533,12.9421429 L15.0055836,12.7142857 C22.6883011,9.81428571 24.7707219,9.02714286 25.3570345,8.79928571 L25.3974699,8.77857143 C25.5996466,8.65428571 25.8220411,8.57142857 26.0646532,8.57142857 L26.3881361,8.57142857 C26.893578,8.57142857 26.893578,8.57142857 37.8313416,12.6935714 L38.4378719,12.9214286 C38.8826608,13.0871429 39.2061436,13.5014286 39.2667967,13.9985714 L39.3476674,14.6614286 C39.6509325,17.375 41.5918296,17.6235714 41.9759655,17.6442857 L42.8655433,17.6857143 C43.4922913,17.7064286 43.9977332,18.2035714 44.0786039,18.825 L44.1796923,19.7364286 C44.19991,19.9642857 46.5855959,42.4185714 27.580979,49.855 L27.39902,49.9171429 C27.2574962,49.9792857 27.0957548,50 26.9340134,50 L26.9340134,50 Z" id="形状备份" fill="#FCD002"></path>
                    </g>
                    <path d="M27.1428571,17.1428571 C27.6359434,17.1428571 28.079721,17.4113424 28.3016098,17.850682 L31.5806334,24.4163676 L38.9029643,25.4659009 C39.3960506,25.5391242 39.7905196,25.8808327 39.9384455,26.3201723 C40.0863713,26.7839196 39.9630998,27.2964824 39.6179394,27.6137832 L34.2679535,32.7150036 L35.5253235,39.9396985 C35.5992864,40.4278536 35.4020519,40.8916009 35.0075829,41.1844939 C34.7856941,41.3309404 34.539151,41.4285714 34.2679535,41.4285714 C34.070719,41.4285714 33.8488302,41.3797559 33.67625,41.2821249 L27.1428571,37.8650395 L20.6094643,41.2821249 C20.1656866,41.5017947 19.6479461,41.4773869 19.2534771,41.1844939 C18.8590081,40.8916009 18.6617736,40.4278536 18.7357365,39.9396985 L19.9931064,32.7150036 L14.6677749,27.6137832 C14.3226145,27.2720747 14.1993429,26.7595118 14.3472688,26.3201723 C14.4951947,25.856425 14.8896637,25.5147164 15.38275,25.4659009 L22.7050808,24.4163676 L25.9841044,17.850682 C26.2059933,17.4113424 26.6497709,17.1428571 27.1428571,17.1428571 Z M27.1182028,21.2677674 L24.7020802,26.1249103 C24.5048457,26.4910266 24.1596853,26.7595118 23.740562,26.8083274 L18.3412675,27.5893754 L22.2613032,31.3725772 C22.557155,31.6654702 22.7050808,32.080402 22.6311179,32.4953338 L21.7189083,37.8406317 L26.5511536,35.3266332 C26.6990795,35.2045944 26.9209683,35.1557789 27.1182028,35.1557789 C27.3154373,35.1557789 27.5373261,35.2045944 27.7099063,35.3022254 L32.5421516,37.816224 L31.6299421,32.4709261 C31.5559791,32.0559943 31.703905,31.6410625 31.9997568,31.3481694 L35.9197925,27.5649677 L30.520498,26.7839196 C30.1013747,26.7351041 29.73156,26.4666188 29.5589798,26.1005025 L27.1182028,21.2677674 Z" id="形状结合备份" fill="#000000"></path>
                </g>
            </g>
        </g>
    </g>
</svg>