<?xml version="1.0" encoding="UTF-8"?>
<svg width="60px" height="60px" viewBox="0 0 60 60" version="1.1" xmlns="http://www.w3.org/2000/svg" xmlns:xlink="http://www.w3.org/1999/xlink">
    <title>编组 11</title>
    <g id="app" stroke="none" stroke-width="1" fill="none" fill-rule="evenodd">
        <g id="规范" transform="translate(-64.000000, -434.000000)">
            <g id="编组-11" transform="translate(64.000000, 434.000000)">
                <rect id="矩形备份-26" fill="#E7BE00" opacity="0" x="0" y="0" width="60" height="60"></rect>
                <g id="编组-5" transform="translate(5.000000, 5.000000)">
                    <rect id="矩形" fill="#FCD002" x="8.43091335" y="7.02576112" width="25" height="31" rx="1.40515222"></rect>
                    <rect id="矩形" fill="#000000" x="11.2412178" y="23.2412178" width="5.6206089" height="3" rx="1.40515222"></rect>
                    <rect id="矩形备份" fill="#000000" x="11.2412178" y="17.2412178" width="8.43091335" height="3" rx="1.40515222"></rect>
                    <rect id="矩形备份-2" fill="#000000" x="11.2412178" y="11.2412178" width="11.2412178" height="3" rx="1.40515222"></rect>
                    <path d="M3.81393198,43.505611 L3.81393198,5.6746556 C3.81393198,4.62985481 4.66766078,3.78302206 5.72108219,3.783022 L36.2327222,3.783022 C37.2860822,3.783022 38.1398724,4.62985475 38.1398724,5.6746556 L38.1398724,13.2406996 L41.9538044,13.2406996 L41.9538044,3.783022 C41.9538044,1.69360418 40.2462854,0 38.1398724,0 L3.81393198,0 C1.707519,0 2.99526212e-14,1.69360424 2.99526212e-14,3.783022 L2.99526212e-14,45.3969995 C2.99526212e-14,47.486356 1.707519,49.1803279 3.81393198,49.1803279 L26.6977081,49.1803279 L26.6977081,45.3969995 L5.72102074,45.3969995 C4.66766072,45.3969995 3.81393192,44.5501667 3.81393198,43.505611 Z M30.9858082,26.7777724 C30.4946209,31.5998357 33.7565122,36.0103999 38.5414586,36.9933778 L38.5414586,40.9657899 L32.8204992,40.9657899 C31.7671391,40.9657899 30.9133489,41.8126227 30.9133489,42.8571784 C30.9133489,43.9019792 31.7670778,44.7488119 32.8204992,44.7488119 L48.0764113,44.7488119 C49.1295256,44.7488119 49.9832545,43.9019792 49.9832545,42.8571784 C49.9832545,41.8126227 49.1295257,40.9657899 48.0764113,40.9657899 L42.3554519,40.9657899 L42.3554519,36.9933778 C47.1560569,36.026453 50.4369227,31.60872 49.9445072,26.7742799 C49.4522146,21.9399623 45.3470336,18.2620821 40.4483017,18.2669789 C35.5620353,18.2810762 31.476627,21.9555865 30.9858082,26.7777724 L30.9858082,26.7777724 Z M46.1693225,27.7247227 C46.1693225,30.8589413 43.6080747,33.3994395 40.4483017,33.3994395 C37.2887744,33.3994395 34.7272809,30.8589413 34.7272809,27.7247227 C34.7272809,24.5907491 37.2888358,22.0503735 40.4483017,22.0503735 C43.6080747,22.0503735 46.1693225,24.5907491 46.1693225,27.7247227 Z" id="形状" fill="#000000" fill-rule="nonzero"></path>
                    <path d="M43.2586062,27.7248155 C43.2586062,29.2770328 42.000459,30.5352109 40.4483017,30.5352109 C38.8962651,30.5352109 37.6379973,29.2770328 37.6379973,27.7248155 C37.6379973,26.1727195 38.8962953,24.914602 40.4483017,24.914602 C42.000459,24.914602 43.2586062,26.1727195 43.2586062,27.7248155 Z" id="路径" fill="#FCD002"></path>
                    <rect id="矩形" fill="#000000" x="35.0285166" y="46.2080721" width="11.2412178" height="2.81030445" rx="1.40515222"></rect>
                </g>
            </g>
        </g>
    </g>
</svg>