<?xml version="1.0" encoding="UTF-8"?>
<svg width="60px" height="60px" viewBox="0 0 60 60" version="1.1" xmlns="http://www.w3.org/2000/svg" xmlns:xlink="http://www.w3.org/1999/xlink">
    <title>编组 8</title>
    <g id="app" stroke="none" stroke-width="1" fill="none" fill-rule="evenodd">
        <g id="规范" transform="translate(-252.000000, -434.000000)">
            <g id="编组-8" transform="translate(252.000000, 434.000000)">
                <rect id="矩形备份-27" fill="#E7BE00" opacity="0" x="0" y="0" width="60" height="60"></rect>
                <g id="编组-4" transform="translate(6.000000, 3.000000)">
                    <path d="M35.6363636,1.27272727 C40.5567187,1.27272727 44.5454545,5.26146314 44.5454545,10.1818182 L44.5454545,10.1818182 L44.545,31.8177273 L40.727,31.8177273 L40.7272727,10.1818182 C40.7272727,7.44227984 38.5633826,5.20814513 35.8515635,5.09537526 L35.6363636,5.09090909 L8.90909091,5.09090909 C6.09745946,5.09090909 3.81818182,7.37018673 3.81818182,10.1818182 L3.81818182,10.1818182 L3.81818182,42 C3.81818182,44.8116315 6.09745946,47.0909091 8.90909091,47.0909091 L8.90909091,47.0909091 L26.727,47.0907273 L26.727,50.9087273 L8.90909091,50.9090909 C4.07659935,50.9090909 0.142751925,47.061538 0.00379834701,42.2626818 L0,42 L0,10.1818182 C0,5.26146314 3.98873587,1.27272727 8.90909091,1.27272727 L8.90909091,1.27272727 Z" id="形状结合备份-3" fill="#000000" fill-rule="nonzero"></path>
                    <rect id="矩形" fill="#FCD002" x="8.90909091" y="11.4545455" width="26.7272727" height="24.1818182" rx="5.09090909"></rect>
                    <path d="M32.3421698,47.0909091 C33.7587818,48.8546821 35.8880885,49.9346535 38.1818182,50.0527432 L38.1818182,50.0527432 L35.1773614,56 L33.1416455,52.8553548 L29.2727273,53.1634799 Z M45.2946639,47.0909091 L48.3636364,53.1634799 L44.4934051,52.8553548 L42.4585101,56 L39.4545455,50.0527432 C41.7488904,49.9355753 43.878822,48.8553739 45.2946639,47.0909091 Z M38.9628813,34.3651384 C42.7716681,34.4438879 45.8181818,37.554039 45.8181818,41.3636364 C45.8181818,45.1732337 42.7716681,48.2833848 38.9628813,48.3621343 C36.4280654,48.4145435 34.063045,47.0922184 32.780266,44.9053238 C31.4974871,42.7184292 31.4974871,40.0088435 32.780266,37.8219489 C34.063045,35.6350543 36.4280654,34.3127292 38.9628813,34.3651384 Z M38.9763428,37.0948368 L37.7079667,39.7228259 L34.813736,40.0877828 L36.9182232,42.1070118 L36.3737787,44.9728211 L38.9449326,43.5907711 L41.5011291,44.9982485 L40.9851035,42.1279519 L43.1120266,40.1281674 L40.2207873,39.7347917 L38.9763428,37.0948368 Z" id="形状结合备份-2" fill="#000000"></path>
                    <rect id="矩形备份-20" fill="#000000" x="12.7272727" y="0" width="17.8181818" height="7.63636364" rx="2.54545455"></rect>
                    <rect id="矩形" fill="#000000" x="14" y="26" width="18" height="3" rx="1.27272727"></rect>
                    <rect id="矩形备份-3" fill="#000000" x="14" y="19" width="18" height="3" rx="1.27272727"></rect>
                </g>
            </g>
        </g>
    </g>
</svg>