<?xml version="1.0" encoding="UTF-8"?>
<svg width="52px" height="51px" viewBox="0 0 52 51" version="1.1" xmlns="http://www.w3.org/2000/svg" xmlns:xlink="http://www.w3.org/1999/xlink">
    <title>编组</title>
    <defs>
        <path d="M25.8603817,5.01715486 C14.3531247,5.01715486 5.02466766,13.0588134 5.02466766,22.9789905 C5.02466766,37.3772415 17.9574061,40.0460671 25.8603817,45.8678009 C34.2769168,38.8142282 46.6965713,37.5825321 46.6965713,22.9789905 C46.6965713,13.0588134 37.3677814,5.01715486 25.8603817,5.01715486 L25.8603817,5.01715486 L25.8603817,5.01715486 Z M16.0727546,27.6635436 C13.7280295,27.6635436 11.8276413,25.7628701 11.8276413,23.4184303 C11.8276413,21.073943 13.7280295,19.1734596 16.0727546,19.1734596 C18.4171943,19.1734596 20.3178679,21.073943 20.3178679,23.4184303 C20.3178679,25.76287 18.4171943,27.6635436 16.0727546,27.6635436 L16.0727546,27.6635436 L16.0727546,27.6635436 Z M26.60771,27.6635436 C24.2632226,27.6635436 22.3627393,25.7628701 22.3627393,23.4184303 C22.3627393,21.073943 24.2632226,19.1734596 26.60771,19.1734596 C28.9521498,19.1734596 30.8528233,21.073943 30.8528233,23.4184303 C30.8528233,25.76287 28.9521498,27.6635436 26.60771,27.6635436 L26.60771,27.6635436 L26.60771,27.6635436 Z M36.7034158,27.6635436 C34.3586907,27.6635436 32.4582074,25.7628701 32.4582074,23.4184303 C32.4582074,21.073943 34.3589285,19.1734596 36.7034158,19.1734596 C39.0478555,19.1734596 40.9485766,21.073943 40.9485766,23.4184303 C40.9485766,25.76287 39.0478079,27.6635436 36.7034158,27.6635436 L36.7034158,27.6635436 L36.7034158,27.6635436 Z" id="path-1"></path>
        <filter x="-15.6%" y="-15.9%" width="140.8%" height="141.6%" filterUnits="objectBoundingBox" id="filter-2">
            <feOffset dx="2" dy="2" in="SourceAlpha" result="shadowOffsetOuter1"></feOffset>
            <feGaussianBlur stdDeviation="2.5" in="shadowOffsetOuter1" result="shadowBlurOuter1"></feGaussianBlur>
            <feColorMatrix values="0 0 0 0 1   0 0 0 0 0.843746341   0 0 0 0 0.112195122  0 0 0 0.44 0" type="matrix" in="shadowBlurOuter1"></feColorMatrix>
        </filter>
    </defs>
    <g id="app" stroke="none" stroke-width="1" fill="none" fill-rule="evenodd">
        <g id="规范" transform="translate(-47.000000, -4406.000000)" fill-rule="nonzero">
            <g id="编组" transform="translate(47.000000, 4406.000000)">
                <g id="形状">
                    <use fill="black" fill-opacity="1" filter="url(#filter-2)" xlink:href="#path-1"></use>
                    <use fill="#FCD002" xlink:href="#path-1"></use>
                </g>
            </g>
        </g>
    </g>
</svg>