<?xml version="1.0" encoding="UTF-8"?>
<svg width="48px" height="48px" viewBox="0 0 48 48" version="1.1" xmlns="http://www.w3.org/2000/svg" xmlns:xlink="http://www.w3.org/1999/xlink">
    <title>形状结合 2</title>
    <defs>
        <path d="M31.3478304,3 L42.000007,15 L42.000007,39 C42.000007,42.0373661 39.2204375,44.9087533 36.0613948,44.9978704 L35.9130459,45 L13.5942143,45 C9.89483828,45 7.08495773,42.2846853 7.0019048,39.1430856 L7.00000701,39 L7.00000701,9 C6.99490515,5.96038203 9.77570647,3.08833114 12.9406307,3.00199709 L27.0642207,3.02205818 C29.3469587,3.021382 31.0608149,3.01619076 31.3164298,3.0027873 L31.3478304,3 Z M31.9724518,31.35 L18.0881543,31.35 C17.2370497,31.35 16.5454545,32.0558091 16.5454545,32.925 C16.5454545,33.7631483 17.1885322,34.4493767 17.9975991,34.4973239 L18.0881543,34.5 L31.9724518,34.5 C32.8235563,34.5 33.5151515,33.7941909 33.5151515,32.925 C33.5151515,32.0558091 32.8235563,31.35 31.9724518,31.35 Z M31.9724518,24 L18.0881543,24 C17.2370497,24 16.5454545,24.7058091 16.5454545,25.575 C16.5454545,26.4131483 17.1885322,27.0993767 17.9975991,27.1473239 L18.0881543,27.15 L31.9724518,27.15 C32.8235563,27.15 33.5151515,26.4441909 33.5151515,25.575 C33.5151515,24.7058091 32.8235563,24 31.9724518,24 Z M31.3478304,6 L31.3478304,12 C31.3478304,13.5128019 32.7046967,14.9339497 34.2809916,14.9977659 L34.3913074,15 L38.956523,15 L31.3478304,6 Z" id="path-1"></path>
        <filter x="-20.0%" y="-19.0%" width="145.7%" height="138.1%" filterUnits="objectBoundingBox" id="filter-2">
            <feOffset dx="1" dy="0" in="SourceAlpha" result="shadowOffsetOuter1"></feOffset>
            <feGaussianBlur stdDeviation="2.5" in="shadowOffsetOuter1" result="shadowBlurOuter1"></feGaussianBlur>
            <feColorMatrix values="0 0 0 0 1   0 0 0 0 0.843746341   0 0 0 0 0.112195122  0 0 0 0.44 0" type="matrix" in="shadowBlurOuter1"></feColorMatrix>
        </filter>
    </defs>
    <g id="app" stroke="none" stroke-width="1" fill="none" fill-rule="evenodd">
        <g id="规范" transform="translate(-44.000000, -589.000000)" fill-rule="nonzero">
            <g id="形状结合-2" transform="translate(44.000000, 589.000000)">
                <g id="形状结合">
                    <use fill="black" fill-opacity="1" filter="url(#filter-2)" xlink:href="#path-1"></use>
                    <use fill="#FCD002" xlink:href="#path-1"></use>
                </g>
            </g>
        </g>
    </g>
</svg>