<?xml version="1.0" standalone="no"?><!DOCTYPE svg PUBLIC "-//W3C//DTD SVG 1.1//EN" "http://www.w3.org/Graphics/SVG/1.1/DTD/svg11.dtd"><svg t="1590328580341" class="icon" viewBox="0 0 1024 1024" version="1.1" xmlns="http://www.w3.org/2000/svg" p-id="3426" xmlns:xlink="http://www.w3.org/1999/xlink" width="200" height="200"><defs><style type="text/css"></style></defs><path d="M39.384615 39.384615a326.892308 326.892308 0 0 1 82.195693 0L984.615385 902.419692c4.292923 29.538462 3.859692 55.217231 0 82.195693a326.892308 326.892308 0 0 1-82.195693 0L39.384615 121.580308A278.331077 278.331077 0 0 1 39.384615 39.384615z" fill="#313131" p-id="3427"></path><path d="M902.419692 39.384615A286.404923 286.404923 0 0 1 984.615385 39.384615c2.835692 25.993846 4.174769 49.467077 0 82.195693L121.580308 984.615385A286.404923 286.404923 0 0 1 39.384615 984.615385c-2.835692-25.993846-4.174769-49.467077 0-82.195693L902.419692 39.384615z" fill="#313131" p-id="3428"></path></svg>