<?xml version="1.0" standalone="no"?><!DOCTYPE svg PUBLIC "-//W3C//DTD SVG 1.1//EN" "http://www.w3.org/Graphics/SVG/1.1/DTD/svg11.dtd"><svg t="1590650090100" class="icon" viewBox="0 0 1024 1024" version="1.1" xmlns="http://www.w3.org/2000/svg" p-id="3635" xmlns:xlink="http://www.w3.org/1999/xlink" width="200" height="200"><defs><style type="text/css"></style></defs><path d="M553.088 830.208c0 14.976 12.128 27.072 27.072 27.072h411.712a27.072 27.072 0 1 0 0-54.144H580.16a27.072 27.072 0 0 0-27.072 27.072z m438.784 119.68h-607.36a27.072 27.072 0 1 0 0 54.176h607.36a27.072 27.072 0 1 0 0-54.176z m-587.104-99.424c0.32-0.32 0.544-0.704 0.864-1.056 0.672-0.64 1.44-1.248 2.048-1.888L842.112 413.12h0.032v-0.064l81.024-80.992A178.752 178.752 0 0 0 975.872 204.8a178.784 178.784 0 0 0-52.704-127.2l-24-24A178.72 178.72 0 0 0 771.968 0.864a178.784 178.784 0 0 0-127.232 52.704l-515.52 515.52-1.792 2.016c-0.32 0.32-0.736 0.544-1.088 0.896a27.296 27.296 0 0 0-2.912 3.52l-0.32 0.384c-0.064 0.16-0.192 0.288-0.32 0.416C61.696 652.192 7.52 924.736 1.344 956.576a27.072 27.072 0 0 0 33.024 31.456c30.656-7.488 294.624-73.408 367.488-135.168 0.992-0.736 2.048-1.472 2.944-2.4z m-220.992-259.296l399.072-399.04 201.856 201.824-399.04 399.072-201.888-201.856zM683.04 91.904a124.96 124.96 0 0 1 88.928-36.8c33.6 0 65.152 13.056 88.896 36.8l24 24.032a124.928 124.928 0 0 1 36.864 88.928c0 33.6-13.12 65.152-36.832 88.896l-61.92 61.92-201.824-201.888 61.888-61.888zM149.92 633.92l193.44 193.44c-58.88 32.704-184.512 72.032-280.256 97.44 21.312-99.584 55.744-230.464 86.816-290.88z" fill="#999999" p-id="3636"></path></svg>