<?xml version="1.0" standalone="no"?><!DOCTYPE svg PUBLIC "-//W3C//DTD SVG 1.1//EN" "http://www.w3.org/Graphics/SVG/1.1/DTD/svg11.dtd"><svg t="1593248873140" class="icon" viewBox="0 0 1024 1024" version="1.1" xmlns="http://www.w3.org/2000/svg" p-id="3366" xmlns:xlink="http://www.w3.org/1999/xlink" width="200" height="200"><defs><style type="text/css"></style></defs><path d="M752.744022 691.582929l64.476178 0.423721 12.570383 0.10593c102.787599 0.776821 173.054627-82.625552 155.046494-183.824197l-62.498814-351.229215C909.94443 87.745511 844.40895 32.6265 773.965371 32.55588L212.42941 32.132159a52.223586 52.223586 0 0 0-52.470756 51.905795L158.899352 584.664053a52.152966 52.152966 0 0 0 51.799865 52.258896l4.519689 0.07062c7.203253 0.07062 16.030769 0.07062 26.094137 0 120.12484-0.953372 223.053679 113.098137 222.877129 223.159609-0.21186 111.579805 50.881803 162.779399 136.402781 163.838701 79.730126 0.918062 136.649951-76.4816 137.568012-191.733652 0.353101-34.886344-8.368485-96.502407-19.208675-140.816538 9.816198 0 21.150729 0.07062 33.756422 0.14124zM69.882679 583.35758V87.39241h28.707083a26.129448 26.129448 0 1 0 0-52.188275H50.497453A32.69712 32.69712 0 0 0 17.659093 67.795324v535.124032c0 18.078753 14.759607 32.6265 32.76774 32.6265h47.597967a26.129448 26.129448 0 1 0 0-52.223586H69.917989z" fill="#FCD002" p-id="3367"></path></svg>