<?xml version="1.0" standalone="no"?><!DOCTYPE svg PUBLIC "-//W3C//DTD SVG 1.1//EN" "http://www.w3.org/Graphics/SVG/1.1/DTD/svg11.dtd"><svg t="1593248892260" class="icon" viewBox="0 0 1024 1024" version="1.1" xmlns="http://www.w3.org/2000/svg" p-id="3500" xmlns:xlink="http://www.w3.org/1999/xlink" width="200" height="200"><defs><style type="text/css"></style></defs><path d="M752.744022 332.417071l64.476178-0.423721 12.570383-0.10593c102.787599-0.776821 173.054627 82.625552 155.046494 183.824197l-62.498814 351.229215c-12.358523 69.313657-77.929313 124.432668-148.372892 124.503288l-561.535961 0.459031a52.223586 52.223586 0 0 1-52.470756-51.905795L158.899352 439.335947a52.152966 52.152966 0 0 1 51.799865-52.258896l4.519689-0.07062c7.203253-0.07062 16.030769-0.07062 26.094137 0 120.12484 0.953372 223.053679-113.098137 222.877129-223.159609C463.978312 52.267017 515.071976 1.067423 600.592953 0.008121c79.730126-0.918062 136.649951 76.4816 137.568012 191.733652 0.353101 34.886344-8.368485 96.502407-19.208675 140.816538 9.816198 0 21.150729-0.07062 33.756422-0.14124zM69.882679 440.64242v495.96517h28.707083a26.129448 26.129448 0 1 1 0 52.188275H50.497453A32.69712 32.69712 0 0 1 17.659093 956.204676V421.045334C17.659093 402.966581 32.4187 388.418834 50.426833 388.418834h47.597967a26.129448 26.129448 0 1 1 0 52.223586H69.917989z" fill="#FCD002" p-id="3501"></path></svg>