<?xml version="1.0" encoding="UTF-8"?>
<svg width="44px" height="44px" viewBox="0 0 44 44" version="1.1" xmlns="http://www.w3.org/2000/svg" xmlns:xlink="http://www.w3.org/1999/xlink">
    <title>编组 7</title>
    <g id="app" stroke="none" stroke-width="1" fill="none" fill-rule="evenodd">
        <g id="规范解读" transform="translate(-103.000000, -2005.000000)" fill="#999999" fill-rule="nonzero">
            <g id="编组-2" transform="translate(0.000000, 1992.000000)">
                <g id="编组-7" transform="translate(103.000000, 13.000000)">
                    <path d="M43.9134963,26.3390089 C43.8626837,25.9785361 43.6708726,25.6529695 43.3801928,25.433817 L32.3779829,17.1437455 L38.5828669,8.60303125 C38.7986436,8.30755357 38.8857106,7.93910268 38.8281079,7.57860714 C38.1219472,3.18729911 34.3845499,-4.26325641e-14 29.9423669,-4.26325641e-14 C29.4625901,-4.26325641e-14 28.9775097,0.03884375 28.5004829,0.115254464 C28.157818,0.170355709 27.8488731,0.353553144 27.6361481,0.627785714 L21.2913088,8.7896875 L10.4958401,0.654598214 C10.2063535,0.435580357 9.84590704,0.342375 9.47873293,0.391973214 C9.11861574,0.443302399 8.79343221,0.635022979 8.57417936,0.925276786 L0.27610347,11.9383393 C-0.179512601,12.5433393 -0.0589054585,13.4036964 0.546782042,13.8599018 L11.1430231,21.8444777 L7.05534454,27.1028214 C6.92759573,27.266998 6.83890888,27.4581088 6.79600972,27.6616607 L4.0630499,40.6190714 C3.95588169,41.1271666 4.14463996,41.6522385 4.55078204,41.9758036 C4.79378424,42.1692099 5.09516363,42.2746211 5.4057374,42.2746211 C5.60502643,42.2746211 5.80194029,42.2313636 5.98264811,42.1473348 L18.0616794,36.5533437 C18.2742224,36.4556567 18.4579252,36.3047193 18.5949829,36.1151607 L22.6584517,30.5220045 L33.4291213,38.6391205 C33.6663956,38.8185003 33.9557881,38.91543 34.2532374,38.9151518 C34.6700097,38.9151518 35.0800544,38.726875 35.350782,38.3690804 L43.6508713,27.356067 C43.8697,27.0652278 43.964188,26.6994444 43.9135945,26.3390089 L43.9134963,26.3390089 Z M29.4519338,2.76316071 C32.5192642,2.53265179 35.2770231,4.54869643 36.0087195,7.47803571 L33.3635142,11.1189375 C32.7229606,9.85030357 31.7841303,8.74460714 30.5989785,7.88876786 C29.4285588,7.04216071 28.1011436,6.50109821 26.7133758,6.28600893 L29.4519338,2.76311161 L29.4519338,2.76316071 Z M3.29378651,12.4937411 L9.94102758,3.67233036 L11.7356481,5.02474107 L10.3496972,6.86429464 C9.89408115,7.46929464 10.0146883,8.32960268 10.6203758,8.78585714 C10.8576541,8.96523508 11.1470404,9.06218002 11.4444919,9.0619375 C11.8612642,9.0619375 12.2726838,8.87366071 12.5419874,8.51517857 L13.9272999,6.67641071 L15.9570454,8.20609821 L14.6632195,9.92214732 C14.2076526,10.5271473 14.3282106,11.3875045 14.9339472,11.8437589 C15.1710105,12.0236248 15.4604887,12.120842 15.7580633,12.1205268 C16.1748356,12.1205268 16.5848803,11.9322009 16.8555588,11.5744554 L18.1493847,9.85825893 L19.6068356,10.9565893 L12.8274963,19.6775268 L3.29378651,12.4937902 L3.29378651,12.4937411 Z M9.12486686,29.9167589 C9.15674031,29.9141054 9.18851455,29.9103711 9.22013472,29.9055625 C12.0770901,29.4432679 14.7946794,31.4003839 15.2569249,34.2687321 C15.2841502,34.4379023 15.3429554,34.6004413 15.4302731,34.7478705 L7.31325526,38.5072187 L9.12486686,29.9167589 L9.12486686,29.9167589 Z M17.6942106,32.6863527 C16.6906079,29.5162902 13.8065945,27.3025402 10.5266794,27.1083214 L24.6316258,8.96401786 C26.1773713,8.79062054 27.7186972,9.19359375 28.9923401,10.1132723 C30.2347508,11.0107054 31.0887731,12.303058 31.4273178,13.7840312 L29.4429472,16.5153705 C29.4192285,16.5422321 17.6942106,32.6863527 17.6942106,32.6863527 L17.6942106,32.6863527 Z M33.9852597,35.6214375 L24.2718669,28.3014286 L30.7647151,19.3644196 L32.1907865,20.4388839 L30.7303401,22.3772902 C30.2747731,22.9822902 30.3953803,23.8426473 31.0010678,24.2988527 C31.2383492,24.4782601 31.5277612,24.5752078 31.8252329,24.574933 C32.2420053,24.574933 32.6533267,24.3866562 32.9226794,24.0281741 L34.3826347,22.0904062 L36.3155901,23.5468259 L34.9394115,25.3729241 C34.4838445,25.9786116 34.6044026,26.8389687 35.2101392,27.2951741 C35.4474135,27.4745538 35.7368059,27.5714836 36.0342553,27.5712054 C36.4509785,27.5712054 36.8624472,27.3829286 37.1317508,27.025183 L38.5081258,25.1987902 L40.6332374,26.8000759 L33.9852106,35.6214375 L33.9852597,35.6214375 Z" id="形状"></path>
                </g>
            </g>
        </g>
    </g>
</svg>