<?xml version="1.0" standalone="no"?><!DOCTYPE svg PUBLIC "-//W3C//DTD SVG 1.1//EN" "http://www.w3.org/Graphics/SVG/1.1/DTD/svg11.dtd"><svg t="1590221529275" class="icon" viewBox="0 0 1024 1024" version="1.1" xmlns="http://www.w3.org/2000/svg" p-id="3673" xmlns:xlink="http://www.w3.org/1999/xlink" width="88" height="88"><defs><style type="text/css"></style></defs><path d="M570.217838 279.273404l-209.454355 279.272474a58.181765 58.181765 0 0 0 93.090824 69.818118l209.454355-279.272473a58.181765 58.181765 0 0 0-93.090824-69.818119z" fill="#FCD002" p-id="3674"></path><path d="M1022.010882 612.980737a31.976698 31.976698 0 0 0-12.404353-21.061799l-256.046312-192.930733 144.407141-198.772183c5.026905-6.865448 7.05163-15.453077 5.701813-23.831251A208.663083 208.663083 0 0 0 696.867905 0.000931c-11.170899 0-22.434889 0.907636-33.559243 2.676361a31.860335 31.860335 0 0 0-20.107618 11.938898L495.535724 204.568018 244.306862 15.244553a31.837062 31.837062 0 0 0-44.730142 6.283631L6.459805 277.830497a31.930153 31.930153 0 0 0 6.283631 44.730141l246.620866 185.809285-95.138822 122.391162a31.883607 31.883607 0 0 0-6.027631 13.009442L94.593543 945.314981a31.930153 31.930153 0 0 0 44.683596 35.560695l281.111017-130.187518c4.933814-2.257452 9.215992-5.771631 12.404352-10.193446l94.557005-130.164245 250.670318 188.904556a31.930153 31.930153 0 0 0 44.730141-6.283631l193.163461-256.302313c5.096723-6.749085 7.284357-15.290168 6.120722-23.668342zM685.464279 64.303418c71.37739-5.352722 135.563513 41.565053 152.599134 109.730809l-61.556308 84.712651a208.523447 208.523447 0 0 0-64.349032-75.170841 208.476901 208.476901 0 0 0-90.437736-37.282875l63.743942-81.989744z m-608.767447 226.44343l154.693678-205.265268 41.774507 31.464699-32.255971 42.821779a31.930153 31.930153 0 0 0 51.013772 38.399965l32.232698-42.798506 47.243594 35.60724-30.114882 39.935964a31.930153 31.930153 0 0 0 51.037044 38.44651l30.091609-39.935963 33.931606 25.576704-157.788947 202.937997-221.858708-167.167848z m135.679877 405.503632l2.23418-0.256c66.490121-10.775263 129.745337 34.769423 140.497326 101.538817 0.628363 3.933087 2.001453 7.703266 4.026179 11.147626l-188.904556 87.505375 42.170143-199.935818z m199.447091 64.465396a187.159103 187.159103 0 0 0-166.795485-129.838428L573.289835 208.617469a144.988959 144.988959 0 0 1 101.468999 26.763612 144.616596 144.616596 0 0 1 56.669039 85.410831l-46.173049 63.55776c-0.558545 0.628363-273.431024 376.342931-273.431024 376.342931z m379.135656 68.282119l-226.047795-170.356208 151.109681-207.988175 33.186879 25.018159-33.978151 45.102505a31.930153 31.930153 0 0 0 51.013772 38.423237l33.978151-45.102504 44.98614 33.908333-32.046516 42.495961a31.953425 31.953425 0 0 0 51.037045 38.446511l32.023243-42.495962 49.454501 37.259603-154.71695 205.28854z" fill="#000000" p-id="3675"></path><path d="M814.581252 158.860423L774.854743 209.455286a127.720611 127.720611 0 0 0-41.541781-44.89305A140.706781 140.706781 0 0 0 674.945016 142.290256l41.146144-48.942501c46.079958-3.211633 87.505375 24.808705 98.490092 65.512668z" fill="#FCD002" p-id="3676"></path></svg>