<?xml version="1.0" standalone="no"?><!DOCTYPE svg PUBLIC "-//W3C//DTD SVG 1.1//EN" "http://www.w3.org/Graphics/SVG/1.1/DTD/svg11.dtd"><svg t="1590221498243" class="icon" viewBox="0 0 1024 1024" version="1.1" xmlns="http://www.w3.org/2000/svg" p-id="3493" width="88" height="88" xmlns:xlink="http://www.w3.org/1999/xlink"><defs><style type="text/css"></style></defs><path d="M508.229818 1011.223273c-9.425455 0-18.781091-1.861818-27.485091-5.445818l-436.247272-181.527273a71.400727 71.400727 0 0 1-44.078546-66.094546V72.052364A71.586909 71.586909 0 0 1 99.490909 5.957818l407.272727 169.425455c0.930909 0.395636 2.001455 0.395636 2.932364 0l407.272727-169.425455a71.563636 71.563636 0 0 1 99.095273 66.094546v686.033454a71.377455 71.377455 0 0 1-44.078545 66.094546l-436.224 181.527272a71.842909 71.842909 0 0 1-27.531637 5.492364zM71.959273 68.212364a3.677091 3.677091 0 0 0-2.094546 0.674909 3.514182 3.514182 0 0 0-1.698909 3.165091v686.08c0 1.536 0.930909 2.932364 2.327273 3.490909l436.270545 181.550545c0.930909 0.395636 1.978182 0.395636 2.932364 0l436.224-181.527273a3.816727 3.816727 0 0 0 2.373818-3.514181V72.052364a3.816727 3.816727 0 0 0-5.306182-3.514182L535.738182 238.033455a72.005818 72.005818 0 0 1-55.016727 0l-407.272728-169.495273a3.653818 3.653818 0 0 0-1.489454-0.325818z" fill="#999999" p-id="3494"></path><path d="M595.246545 425.332364a33.885091 33.885091 0 0 1-13.032727-65.186909l258.373818-107.52a33.885091 33.885091 0 0 1 26.065455 62.603636l-258.397091 107.52a34.141091 34.141091 0 0 1-13.009455 2.56z m0 165.655272a33.885091 33.885091 0 0 1-13.032727-65.163636l258.373818-107.52a33.885091 33.885091 0 0 1 26.065455 62.557091l-258.397091 107.52a33.722182 33.722182 0 0 1-13.009455 2.606545z m0 165.655273a33.885091 33.885091 0 0 1-13.032727-65.163636l258.373818-107.52a33.885091 33.885091 0 0 1 26.065455 62.603636L608.256 754.036364a33.931636 33.931636 0 0 1-13.009455 2.583272zM294.423273 367.476364l32.581818 65.978181c1.722182 3.490909 5.050182 5.934545 8.936727 6.516364l72.797091 10.589091a11.915636 11.915636 0 0 1 6.609455 20.340364l-52.689455 51.339636a11.938909 11.938909 0 0 0-3.421091 10.589091l12.427637 72.494545a11.915636 11.915636 0 0 1-17.31491 12.567273l-65.11709-34.210909a11.962182 11.962182 0 0 0-11.101091 0l-65.117091 34.210909a11.915636 11.915636 0 1 1-17.314909-12.567273l12.427636-72.494545a11.938909 11.938909 0 0 0-3.444364-10.589091l-52.666181-51.339636a11.962182 11.962182 0 0 1 6.609454-20.340364l72.797091-10.589091a11.938909 11.938909 0 0 0 8.983273-6.516364l32.581818-65.978181a11.938909 11.938909 0 0 1 21.434182 0z" fill="#999999" p-id="3495"></path></svg>