<?xml version="1.0" standalone="no"?><!DOCTYPE svg PUBLIC "-//W3C//DTD SVG 1.1//EN" "http://www.w3.org/Graphics/SVG/1.1/DTD/svg11.dtd"><svg t="1590222225558" class="icon" viewBox="0 0 1093 1024" version="1.1" xmlns="http://www.w3.org/2000/svg" p-id="4276" xmlns:xlink="http://www.w3.org/1999/xlink" width="93.9296875" height="88"><defs><style type="text/css"></style></defs><path d="M542.510545 60.672c111.662545 0 203.892364 92.253091 203.892364 203.892364 0 111.662545-92.229818 203.892364-203.869091 203.892363-111.685818 0-203.915636-92.229818-203.915636-203.869091 0-111.662545 92.229818-203.915636 203.892363-203.915636m109.21891 570.414545c72.843636 0 143.220364 29.137455 194.187636 82.525091 53.410909 53.410909 84.945455 126.231273 82.525091 206.312728v16.989091c-36.398545 24.273455-199.028364 24.273455-279.133091 24.273454h-218.461091c-92.229818 0-245.131636 0-279.133091-21.829818v-16.989091c2.443636-162.629818 128.651636-291.281455 281.576727-291.281455h218.437819M542.510545 0c-145.640727 0-264.564364 118.923636-264.564363 264.564364s118.923636 264.587636 264.564363 264.587636 264.564364-118.923636 264.564364-264.587636C807.098182 118.946909 688.174545 0 542.510545 0z m109.21891 570.414545h-218.437819c-186.903273 0-339.828364 155.345455-339.828363 347.089455v21.853091c0 77.661091 150.504727 77.661091 339.828363 77.661091h218.437819c186.903273 0 339.828364-2.420364 339.828363-77.661091v-21.853091c0-191.767273-152.901818-347.089455-339.828363-347.089455z" fill="#000000" p-id="4277"></path><path d="M599.133091 677.352727h-113.221818c-96.861091 0-176.128 80.942545-176.128 180.875637v11.380363c0 40.471273 77.986909 40.471273 176.128 40.471273h113.221818c96.861091 0 176.104727-1.256727 176.104727-40.494545v-11.357091c0-99.933091-79.243636-180.875636-176.104727-180.875637z" fill="#FCD002" p-id="4278"></path></svg>