<?xml version="1.0" standalone="no"?><!DOCTYPE svg PUBLIC "-//W3C//DTD SVG 1.1//EN" "http://www.w3.org/Graphics/SVG/1.1/DTD/svg11.dtd"><svg t="1590222235351" class="icon" viewBox="0 0 1024 1024" version="1.1" xmlns="http://www.w3.org/2000/svg" p-id="4396" xmlns:xlink="http://www.w3.org/1999/xlink" width="88" height="88"><defs><style type="text/css"></style></defs><path d="M519.237818 60.672c111.662545 0 203.892364 92.253091 203.892364 203.892364 0 111.662545-92.229818 203.892364-203.869091 203.892363-111.685818 0-203.915636-92.229818-203.915636-203.869091 0-111.662545 92.229818-203.915636 203.892363-203.915636m109.218909 570.414545c72.843636 0 143.220364 29.137455 194.187637 82.525091 53.410909 53.410909 84.945455 126.231273 82.525091 206.312728v16.989091c-36.398545 24.273455-199.028364 24.273455-279.133091 24.273454h-218.461091c-92.229818 0-245.131636 0-279.133091-21.829818v-16.989091c2.443636-162.629818 128.651636-291.281455 281.576727-291.281455h218.437818M519.237818 0c-145.640727 0-264.564364 118.923636-264.564363 264.564364s118.923636 264.587636 264.564363 264.587636 264.564364-118.923636 264.564364-264.587636C783.825455 118.946909 664.901818 0 519.237818 0z m109.218909 570.414545h-218.437818c-186.903273 0-339.828364 155.345455-339.828364 347.089455v21.853091c0 77.661091 150.504727 77.661091 339.828364 77.661091h218.437818c186.903273 0 339.828364-2.420364 339.828364-77.661091v-21.853091c0-191.767273-152.901818-347.089455-339.828364-347.089455z" fill="#999999" p-id="4397"></path></svg>