<?xml version="1.0" standalone="no"?><!DOCTYPE svg PUBLIC "-//W3C//DTD SVG 1.1//EN" "http://www.w3.org/Graphics/SVG/1.1/DTD/svg11.dtd"><svg t="1590232252308" class="icon" viewBox="0 0 1024 1024" version="1.1" xmlns="http://www.w3.org/2000/svg" p-id="6140" xmlns:xlink="http://www.w3.org/1999/xlink" width="200" height="200"><defs><style type="text/css"></style></defs><path d="M512 950.857143C269.641143 950.857143 73.142857 754.358857 73.142857 512S269.641143 73.142857 512 73.142857s438.857143 196.498286 438.857143 438.857143-196.498286 438.857143-438.857143 438.857143z m-54.016-468.114286v216.064a49.517714 49.517714 0 0 0 98.998857 0V482.742857a49.517714 49.517714 0 0 0-98.998857 0z m49.152-207.067428c-13.458286 0-24.868571 4.169143-34.340571 13.860571-10.093714 8.996571-14.811429 20.772571-14.811429 35.328 0 13.860571 4.717714 25.6 14.811429 35.328 9.435429 9.691429 20.882286 14.518857 34.377142 14.518857 13.202286 0 25.965714-4.900571 35.693715-13.860571 9.435429-9.691429 14.116571-21.430857 14.116571-35.986286 0-14.518857-4.681143-26.331429-14.116571-35.328-9.435429-9.654857-21.577143-13.860571-35.693715-13.860571z" fill="#FCD002" p-id="6141"></path></svg>