<?xml version="1.0" standalone="no"?><!DOCTYPE svg PUBLIC "-//W3C//DTD SVG 1.1//EN" "http://www.w3.org/Graphics/SVG/1.1/DTD/svg11.dtd"><svg t="1590294144137" class="icon" viewBox="0 0 1024 1024" version="1.1" xmlns="http://www.w3.org/2000/svg" p-id="5893" xmlns:xlink="http://www.w3.org/1999/xlink" width="200" height="200"><defs><style type="text/css"></style></defs><path d="M603.306667 401.976889a167.68 167.68 0 0 1 167.68 167.651555v293.432889h-335.36V569.628444a167.68 167.68 0 0 1 167.708444-167.651555z" fill="#FCD002" p-id="5894"></path><path d="M498.062222 121.827556L155.107556 415.232A37.688889 37.688889 0 0 0 142.222222 443.875556v424.419555c0 20.252444 15.36 36.693333 34.304 36.693333H862.435556c18.915556 0 34.275556-16.440889 34.275555-36.693333v-424.391111c0-11.150222-4.721778-21.703111-12.856889-28.672L540.899556 121.827556a32.568889 32.568889 0 0 0-42.837334 0z m48.810667 56.092444l307.968 265.955556v419.185777H184.120889V443.875556L492.088889 177.92a41.927111 41.927111 0 0 1 54.784 0z" fill="#000000" p-id="5895"></path><path d="M603.306667 527.729778a83.825778 83.825778 0 0 1 83.854222 83.825778v293.432888h-335.36V611.555556a83.825778 83.825778 0 0 1 83.854222-83.825778h167.68z m0 41.898666h-167.651556c-21.504 0-39.224889 16.213333-41.642667 37.034667l-0.284444 4.892445v293.432888h251.505778V611.555556c0-21.504-16.184889-39.224889-37.034667-41.642667l-4.864-0.284445z" fill="#000000" p-id="5896"></path></svg>