<?xml version="1.0" standalone="no"?><!DOCTYPE svg PUBLIC "-//W3C//DTD SVG 1.1//EN" "http://www.w3.org/Graphics/SVG/1.1/DTD/svg11.dtd"><svg t="1590233733278" class="icon" viewBox="0 0 1024 1024" version="1.1" xmlns="http://www.w3.org/2000/svg" p-id="13587" xmlns:xlink="http://www.w3.org/1999/xlink" width="200" height="200"><defs><style type="text/css"></style></defs><path d="M1020.216889 694.698667l-327.793778-110.222223s25.201778-37.717333 52.053333-111.644444c26.908444-73.955556 30.776889-114.545778 30.776889-114.545778l-212.195555-1.735111V284.074667l256.967111-1.820445V231.025778h-257.024v-116.622222H437.191111v116.622222h-239.786667v51.228444l239.786667-1.706666v77.738666H244.849778v40.590222h395.832889s-4.352 32.967111-19.541334 73.955556c-15.160889 40.96-30.805333 76.856889-30.805333 76.856889s-185.856-65.024-283.790222-65.024c-97.934222 0-217.031111 39.338667-228.608 153.514667-11.491556 114.147556 55.466667 175.957333 149.845333 198.712888 94.378667 22.869333 181.504-0.227556 257.365333-37.347555 75.861333-37.091556 150.300444-121.400889 150.300445-121.400889l382.037333 185.543111a188.529778 188.529778 0 0 1-185.969778 156.529778H189.866667a188.501333 188.501333 0 0 1-188.672-188.359111V189.866667A188.529778 188.529778 0 0 1 189.525333 1.194667h641.991111a188.529778 188.529778 0 0 1 188.700445 188.330666v505.173334z m-477.724445-63.886223s-119.267556 150.556444-259.783111 150.556445c-140.572444 0-170.097778-71.537778-170.097777-122.965333 0-51.399111 29.240889-107.292444 148.849777-115.370667 119.523556-8.078222 281.088 87.779556 281.088 87.779555h-0.085333z" fill="#02A9F1" p-id="13588"></path></svg>