<?xml version="1.0" standalone="no"?><!DOCTYPE svg PUBLIC "-//W3C//DTD SVG 1.1//EN" "http://www.w3.org/Graphics/SVG/1.1/DTD/svg11.dtd"><svg t="1590294113013" class="icon" viewBox="0 0 1024 1024" version="1.1" xmlns="http://www.w3.org/2000/svg" p-id="5751" xmlns:xlink="http://www.w3.org/1999/xlink" width="200" height="200"><defs><style type="text/css"></style></defs><path d="M379.249778 549.916444h455.111111V853.333333H303.416889v-227.555555a75.861333 75.861333 0 0 1 75.832889-75.861334z" fill="#FCD002" p-id="5752"></path><path d="M113.777778 815.416889m18.972444 0l758.499556 0q18.972444 0 18.972444 18.972444l0-0.028444q0 18.972444-18.972444 18.972444l-758.499556 0q-18.972444 0-18.972444-18.972444l0 0.028444q0-18.972444 18.972444-18.972444Z" fill="#000000" p-id="5753"></path><path d="M189.639111 701.639111m18.972445 0l606.805333 0q18.972444 0 18.972444 18.972445l0-0.028445q0 18.972444-18.972444 18.972445l-606.805333 0q-18.972444 0-18.972445-18.972445l0 0.028445q0-18.972444 18.972445-18.972445Z" fill="#000000" p-id="5754"></path><path d="M493.027556 284.444444m18.972444 0l-0.028444 0q18.972444 0 18.972444 18.972445l0 151.694222q0 18.972444-18.972444 18.972445l0.028444 0q-18.972444 0-18.972444-18.972445l0-151.694222q0-18.972444 18.972444-18.972445Z" fill="#000000" p-id="5755"></path><path d="M644.750222 284.444444m18.972445 0l-0.028445 0q18.972444 0 18.972445 18.972445l0 151.694222q0 18.972444-18.972445 18.972445l0.028445 0q-18.972444 0-18.972445-18.972445l0-151.694222q0-18.972444 18.972445-18.972445Z" fill="#000000" p-id="5756"></path><path d="M341.333333 284.444444m18.972445 0l-0.028445 0q18.972444 0 18.972445 18.972445l0 151.694222q0 18.972444-18.972445 18.972445l0.028445 0q-18.972444 0-18.972445-18.972445l0-151.694222q0-18.972444 18.972445-18.972445Z" fill="#000000" p-id="5757"></path><path d="M341.333333 170.666667m18.972445 0l-0.028445 0q18.972444 0 18.972445 18.972444l0 37.916445q0 18.972444-18.972445 18.972444l0.028445 0q-18.972444 0-18.972445-18.972444l0-37.916445q0-18.972444 18.972445-18.972444Z" fill="#000000" p-id="5758"></path><path d="M493.027556 170.666667m18.972444 0l-0.028444 0q18.972444 0 18.972444 18.972444l0 37.916445q0 18.972444-18.972444 18.972444l0.028444 0q-18.972444 0-18.972444-18.972444l0-37.916445q0-18.972444 18.972444-18.972444Z" fill="#000000" p-id="5759"></path><path d="M644.750222 170.666667m18.972445 0l-0.028445 0q18.972444 0 18.972445 18.972444l0 37.916445q0 18.972444-18.972445 18.972444l0.028445 0q-18.972444 0-18.972445-18.972444l0-37.916445q0-18.972444 18.972445-18.972444Z" fill="#000000" p-id="5760"></path></svg>