<?xml version="1.0" standalone="no"?><!DOCTYPE svg PUBLIC "-//W3C//DTD SVG 1.1//EN" "http://www.w3.org/Graphics/SVG/1.1/DTD/svg11.dtd"><svg t="1590232206191" class="icon" viewBox="0 0 1024 1024" version="1.1" xmlns="http://www.w3.org/2000/svg" p-id="5738" xmlns:xlink="http://www.w3.org/1999/xlink" width="200" height="200"><defs><style type="text/css"></style></defs><path d="M749.714286 36.571429C840.594286 36.571429 914.285714 111.616 914.285714 204.214857v724.150857c0 52.150857-61.586286 78.628571-98.230857 42.203429l-225.28-223.817143a88.283429 88.283429 0 0 0-125.257143 0.365714L244.772571 969.142857c-36.571429 36.754286-98.486857 10.386286-98.486857-41.910857V204.214857C146.285714 111.616 219.977143 36.571429 310.857143 36.571429z m-202.861715 157.805714a36.571429 36.571429 0 0 0-49.152 16.018286l-32.219428 63.378285a36.571429 36.571429 0 0 1-27.501714 19.638857l-70.217143 9.874286a36.571429 36.571429 0 0 0-20.041143 62.793143l49.371428 46.738286a36.571429 36.571429 0 0 1 10.898286 32.914285l-11.849143 67.108572a36.571429 36.571429 0 0 0 52.662857 38.912l64.877715-33.097143a36.571429 36.571429 0 0 1 33.206857 0l64.877714 33.097143a36.571429 36.571429 0 0 0 52.662857-38.912l-11.849143-67.072a36.571429 36.571429 0 0 1 10.861715-32.914286l49.371428-46.774857a36.571429 36.571429 0 0 0-20.004571-62.756571l-70.217143-9.910858a36.571429 36.571429 0 0 1-27.501714-19.638857l-32.182857-63.378285a36.571429 36.571429 0 0 0-16.054858-16.018286z" fill="#FCD002" p-id="5739"></path></svg>