<?xml version="1.0" standalone="no"?><!DOCTYPE svg PUBLIC "-//W3C//DTD SVG 1.1//EN" "http://www.w3.org/Graphics/SVG/1.1/DTD/svg11.dtd"><svg t="1590233739347" class="icon" viewBox="0 0 1024 1024" version="1.1" xmlns="http://www.w3.org/2000/svg" p-id="13721" xmlns:xlink="http://www.w3.org/1999/xlink" width="200" height="200"><defs><style type="text/css"></style></defs><path d="M612.425143 297.398857c16.530286 0 29.988571 13.421714 29.988571 29.952v474.514286a29.952 29.952 0 1 1-59.940571 0V327.350857c0-16.530286 13.421714-29.988571 29.988571-29.988571z m-209.664 0c16.566857 0 29.988571 13.421714 29.988571 29.952v474.514286a29.952 29.952 0 1 1-59.904 0V327.350857c0-16.530286 13.385143-29.988571 29.915429-29.988571z" fill="#333333" p-id="13722"></path><path d="M732.233143 1019.026286H282.989714c-82.578286 0-149.76-61.44-149.76-136.923429V240.310857a29.952 29.952 0 1 1 59.904 0v641.828572c0 42.422857 40.301714 76.982857 89.856 76.982857h449.243429c49.554286 0 89.856-34.523429 89.856-77.019429V240.310857a29.952 29.952 0 0 1 59.904 0v641.828572c0 75.446857-67.181714 136.886857-149.76 136.886857zM432.713143 0.731429h149.76a29.952 29.952 0 0 1 0 59.867428h-149.76a29.952 29.952 0 0 1 0-59.904zM103.277714 90.514286h808.667429a29.952 29.952 0 1 1 0 59.904H103.277714a29.952 29.952 0 1 1 0-59.904z" fill="#333333" p-id="13723"></path></svg>