<?xml version="1.0" standalone="no"?><!DOCTYPE svg PUBLIC "-//W3C//DTD SVG 1.1//EN" "http://www.w3.org/Graphics/SVG/1.1/DTD/svg11.dtd"><svg t="1590232213674" class="icon" viewBox="0 0 1024 1024" version="1.1" xmlns="http://www.w3.org/2000/svg" p-id="5872" xmlns:xlink="http://www.w3.org/1999/xlink" width="200" height="200"><defs><style type="text/css"></style></defs><path d="M819.712 104.704c18.029714 16.786286 32.475429 30.646857 43.154286 41.691429 10.642286 10.971429 18.870857 20.443429 24.612571 28.013714 5.632 7.716571 9.216 14.226286 10.532572 19.602286a58.514286 58.514286 0 0 1 1.974857 14.116571v16.054857h-148.48a23.844571 23.844571 0 0 1-17.554286-7.497143 66.925714 66.925714 0 0 1-12.507429-17.517714 94.573714 94.573714 0 0 1-7.460571-20.589714 72.411429 72.411429 0 0 1-2.450286-16.530286V37.412571h3.072c5.376 0 10.898286 0.877714 16.530286 2.450286 5.632 1.718857 12.251429 4.900571 19.602286 9.581714 7.350857 4.644571 16.530286 11.373714 27.574857 20.114286 10.788571 8.667429 24.612571 20.443429 41.398857 35.108572zM648.045714 162.889143c0 13.385143 1.974857 27.355429 6.034286 41.691428 4.022857 14.336 10.386286 27.794286 19.090286 40.192 8.704 12.361143 19.748571 22.528 33.097143 30.610286 13.348571 8.082286 29.147429 12.032 47.177142 12.032h146.541715v566.089143c0 19.382857-3.803429 36.754286-11.52 52.187429-7.716571 15.433143-17.92 28.452571-30.646857 39.094857-12.726857 10.678857-26.697143 19.126857-42.130286 25.124571-15.433143 5.997714-30.390857 9.069714-45.202286 9.069714H276.662857c-12.763429 0-26.587429-3.657143-41.691428-11.044571a172.141714 172.141714 0 0 1-42.130286-29.147429 168.374857 168.374857 0 0 1-32.585143-41.179428 96.731429 96.731429 0 0 1-12.982857-48.164572V166.948571c0-14.08 3.181714-28.525714 9.545143-43.629714 6.363429-15.067429 15.067429-28.891429 26.112-41.654857a151.478857 151.478857 0 0 1 37.595428-31.597714 85.430857 85.430857 0 0 1 44.141715-12.507429H648.045714v125.330286z m63.268572 626.395428c17.371429 0 32.073143-6.217143 44.068571-18.651428 12.032-12.324571 18.029714-27.282286 18.029714-44.690286a59.977143 59.977143 0 0 0-18.029714-44.105143 59.977143 59.977143 0 0 0-44.105143-18.029714H334.848a59.977143 59.977143 0 0 0-44.105143 18.029714 59.977143 59.977143 0 0 0-17.993143 44.105143c0 17.408 5.997714 32.219429 17.993143 44.726857 12.032 12.361143 26.697143 18.651429 44.105143 18.651429H711.314286z m62.208-313.197714c0-17.371429-5.997714-32.329143-17.993143-44.726857a59.136 59.136 0 0 0-44.105143-18.614857H334.848c-17.371429 0-32.073143 6.253714-44.105143 18.651428a61.988571 61.988571 0 0 0-17.993143 44.690286c0 17.408 5.997714 32.109714 17.993143 44.105143 12.032 12.032 26.697143 18.029714 44.105143 18.029714H711.314286a59.977143 59.977143 0 0 0 44.105143-18.029714 59.611429 59.611429 0 0 0 18.139428-44.105143z" fill="#FCD002" p-id="5873"></path></svg>