<?xml version="1.0" standalone="no"?><!DOCTYPE svg PUBLIC "-//W3C//DTD SVG 1.1//EN" "http://www.w3.org/Graphics/SVG/1.1/DTD/svg11.dtd"><svg t="1590233762073" class="icon" viewBox="0 0 1024 1024" version="1.1" xmlns="http://www.w3.org/2000/svg" p-id="13856" xmlns:xlink="http://www.w3.org/1999/xlink" width="200" height="200"><defs><style type="text/css"></style></defs><path d="M313.636571 482.121143l258.925715-223.817143 156.708571-135.497143 36.498286-31.561143c15.616-13.494857 28.964571 7.570286 38.253714 18.322286L932.571429 258.230857c17.554286 20.260571-51.931429 65.901714-63.488 75.849143L533.577143 624.274286l-58.221714 50.358857c-24.173714 20.882286 10.971429 55.734857 34.962285 34.962286l258.889143-223.853715 156.708572-135.497143 36.498285-31.561142c28.16-24.356571 30.829714-65.682286 6.509715-93.805715l-123.355429-142.628571c-20.150857-23.369143-37.302857-45.129143-71.789714-44.982857-21.76 0.073143-37.485714 14.262857-52.809143 27.538285l-310.966857 268.836572-131.328 113.517714c-24.173714 20.918857 10.971429 55.771429 34.962285 34.998857z m164.864 195.730286L201.508571 724.882286l30.427429 30.427428 87.954286-286.939428c9.362286-30.573714-38.4-43.556571-47.725715-13.165715l-87.954285 286.939429c-5.997714 19.565714 12.873143 33.426286 30.427428 30.427429l277.028572-46.994286c31.451429-5.339429 18.066286-53.028571-13.165715-47.725714z m34.011429-4.717715c-65.645714-75.849143-131.218286-151.734857-196.790857-227.584-20.918857-24.137143-55.771429 10.971429-34.998857 34.998857l196.754285 227.584c20.955429 24.137143 55.808-10.971429 35.035429-34.998857z m402.029714-85.942857v182.491429c0 22.747429 2.450286 47.213714-0.841143 69.851428-6.582857 45.421714-47.104 78.262857-92.306285 78.262857H251.318857c-42.898286 0-90.88 6.765714-128.109714-18.395428-44.982857-30.354286-36.571429-90.258286-36.571429-136.96V317.952c0-37.485714-4.534857-78.189714 0.877715-115.492571 6.765714-46.445714 47.908571-78.262857 93.696-78.262858h292.315428c31.890286 0 31.890286-49.481143 0-49.481142H301.568c-59.538286 0-131.181714-10.130286-186.770286 15.250285-47.506286 21.650286-77.641143 75.081143-77.641143 126.208v605.513143c0 80.347429 62.683429 145.554286 143.835429 145.554286h575.268571c46.701714 0 93.001143 4.315429 135.862858-18.212572 76.873143-40.374857 71.899429-123.611429 71.899428-196.973714v-164.900571c0-31.890286-49.481143-31.890286-49.481143 0z m-193.097143-369.152l123.977143 137.069714m-141.494857-119.588571l124.013714 137.069714c21.467429 23.698286 56.32-11.410286 34.998858-34.998857l-124.013715-137.069714c-21.467429-23.698286-56.32 11.410286-34.998857 34.998857z" fill="#333333" p-id="13857"></path></svg>