<?xml version="1.0" standalone="no"?><!DOCTYPE svg PUBLIC "-//W3C//DTD SVG 1.1//EN" "http://www.w3.org/Graphics/SVG/1.1/DTD/svg11.dtd"><svg t="1590232223273" class="icon" viewBox="0 0 1024 1024" version="1.1" xmlns="http://www.w3.org/2000/svg" p-id="6006" xmlns:xlink="http://www.w3.org/1999/xlink" width="200" height="200"><defs><style type="text/css"></style></defs><path d="M935.753143 635.757714l-23.04-21.942857a46.701714 46.701714 0 0 0-65.572572 2.486857l-26.514285 28.342857 95.597714 80.786286 23.04-24.978286a46.153143 46.153143 0 0 0-3.510857-64.768v0.073143z m-318.829714 229.156572a159.890286 159.890286 0 0 0-26.989715 92.16c1.828571 13.056 12.324571 23.149714 25.417143 24.429714h3.510857a162.962286 162.962286 0 0 0 89.6-31.378286l157.696-170.934857L770.56 698.514286l-153.636571 166.4z m219.684571-413.586286v-291.474286a117.284571 117.284571 0 0 0-31.378286-85.430857 118.345143 118.345143 0 0 0-83.126857-37.595428H188.379429a118.198857 118.198857 0 0 0-83.273143 37.595428 117.211429 117.211429 0 0 0-31.378286 85.504v613.814857a117.796571 117.796571 0 0 0 114.651429 120.576h239.725714c28.745143 0 56.173714-12.434286 75.117714-33.865143l303.835429-333.348571a112.822857 112.822857 0 0 0 29.476571-75.776h0.073143zM416.182857 714.971429H205.458286a35.766857 35.766857 0 1 1 0-71.241143h210.724571a35.766857 35.766857 0 1 1 0 71.241143z m142.628572-212.772572H205.458286a35.766857 35.766857 0 1 1 0-71.241143h353.353143a35.766857 35.766857 0 1 1 0 71.241143z m145.700571-213.211428H203.885714a35.437714 35.437714 0 1 1 0-70.838858h500.553143a35.437714 35.437714 0 1 1 0 70.838858h0.073143z" fill="#FCD002" p-id="6007"></path></svg>