<?xml version="1.0" standalone="no"?><!DOCTYPE svg PUBLIC "-//W3C//DTD SVG 1.1//EN" "http://www.w3.org/Graphics/SVG/1.1/DTD/svg11.dtd"><svg t="1590294078613" class="icon" viewBox="0 0 1024 1024" version="1.1" xmlns="http://www.w3.org/2000/svg" p-id="5617" xmlns:xlink="http://www.w3.org/1999/xlink" width="200" height="200"><defs><style type="text/css"></style></defs><path d="M915.313688 800.485543c3.619294 12.941719 6.288067 26.102789 8.042876 39.410094 2.303187 15.976077 3.47306 32.134947 3.47306 48.257258 0.073117 15.464258-1.24299 30.891957-4.021438 46.063746a82.110455 82.110455 0 0 1-11.954639 32.793c-8.18911 7.604174-18.279264 12.795485-29.246823 14.988997-19.37602 5.666572-39.044509 10.126712-58.968906 13.307304-23.653368 4.094555-50.012067 8.006318-79.039539 11.698729-29.06403 3.655853-58.091502 6.799886-87.082415 9.395542-28.990913 2.595656-57.250656 4.496699-84.74267 5.703131a1377.890944 1377.890944 0 0 1-143.85781-0.694613 3208.742058 3208.742058 0 0 1-83.609355-5.666571c-28.771562-2.303187-57.214097-4.862284-85.291047-7.640733a1170.421294 1170.421294 0 0 1-77.28473-9.980478 1908.355195 1908.355195 0 0 1-59.553843-10.528856 72.020301 72.020301 0 0 1-30.343579-10.601974 85.291047 85.291047 0 0 1-16.085752-49.390572 388.251574 388.251574 0 0 1 4.642933-108.067011 85.912542 85.912542 0 0 1 31.513452-57.725916 205.678282 205.678282 0 0 1 59.517284-31.623128c22.520054-7.750408 46.173422-14.623411 70.996663-20.509334a206.372894 206.372894 0 0 0 64.416127-26.83396c12.356783-7.128913 23.799602-15.720167 34.109108-25.554412 7.20203-6.982679 12.978278-15.281465 17.072832-24.457655 3.436502-8.042876 5.191311-16.743806 5.191311-25.517853 0-8.920281-0.365585-18.900759-1.169872-29.977994a56.885071 56.885071 0 0 0-16.597572-37.76496A858.138343 858.138343 0 0 0 313.925892 511.819401a51.547525 51.547525 0 0 1-15.464258-19.449137c-4.204231-8.481579-8.18911-17.182508-11.991197-26.029673a268.705185 268.705185 0 0 1-10.272947-32.171505 123.677502 123.677502 0 0 1-6.909562-7.677291 168.900402 168.900402 0 0 1-7.9332-15.171789 219.972667 219.972667 0 0 1-10.309505-27.162987 174.603533 174.603533 0 0 1-7.494499-31.586569 69.461204 69.461204 0 0 1 0.731171-23.909278c0.511819-7.348264 2.449421-14.513736 5.666572-21.130829 0-25.956555 1.572017-51.913111 4.606374-77.723432 3.509619-23.616809 8.518137-46.977709 14.91588-69.936465 6.507418-24.494214 17.730886-47.526087 33.04891-67.742954 12.649251-17.365301 27.674806-32.902676 44.601405-46.063746a203.886914 203.886914 0 0 1 49.865833-28.442535 241.651874 241.651874 0 0 1 52.022786-13.746007A345.587771 345.587771 0 0 1 499.496983 0a308.919567 308.919567 0 0 1 42.956271 6.068716c9.322425 2.010719 18.352381 5.154753 26.870519 9.468659 6.580535 3.47306 12.576134 7.969759 17.767445 13.307304 4.935401 5.191311 10.090154 10.346064 15.464257 15.500816h21.788883c6.763328 0 13.526656 0.950522 19.997516 2.815007 7.165472 2.193512 13.782565 5.776248 19.522254 10.565415 7.823525 6.580535 14.952438 14.038475 21.130829 22.191027a228.381128 228.381128 0 0 1 38.971392 72.751472c7.969759 24.421097 14.111592 49.427131 18.352381 74.798749 3.802087 26.870519 6.105274 53.92383 6.909562 81.050258 1.681692 4.277348 2.851565 8.774047 3.473061 13.307305a152.30283 152.30283 0 0 1 0 46.648682 155.373747 155.373747 0 0 1-6.909562 34.949953 62.222616 62.222616 0 0 1-10.272947 19.449138 34.694044 34.694044 0 0 1-12.649251 11.369702c-2.74189 10.967559-6.21495 21.679207-10.272946 32.171505-3.802087 8.883722-7.823525 17.584652-12.064315 26.139348a51.547525 51.547525 0 0 1-15.464257 19.266345c-12.978278 10.346064-23.653368 19.046993-32.06183 26.102789a59.224816 59.224816 0 0 0-17.072833 36.119827c-2.266629 10.199829-3.034358 20.692127-2.266629 31.074749 0.950522 11.077234 3.875204 21.825442 8.70093 31.80592 5.776248 11.771846 13.965358 22.191027 24.055512 30.56293 13.819124 11.150351 29.539291 19.814723 46.429331 25.517853a582.377361 582.377361 0 0 0 57.799034 18.279264c21.021154 5.593455 41.23802 11.881522 60.687158 18.900759 18.571733 6.580535 36.083268 15.720167 52.095903 27.199546 14.988997 10.67509 26.212465 25.84688 32.06183 43.285298l-0.182793-0.182793z m-367.632564-36.631646a16.049194 16.049194 0 0 0 0.548378-13.892241 49.463689 49.463689 0 0 0-8.591254-13.855682 209.992188 209.992188 0 0 0-13.746007-14.440619h-52.717398a98.708027 98.708027 0 0 0-12.612693 14.440619 50.743238 50.743238 0 0 0-7.45794 12.247107 12.576134 12.576134 0 0 0 0.548378 12.210549c5.374104 10.346064 9.94392 19.412579 13.782566 27.199545a65.805352 65.805352 0 0 0 12.576133 18.279264c-1.535458 6.690211-3.838646 16.15887-6.909561 28.442536s-5.922482 24.859799-8.554696 37.76496c-2.705331 12.978278-5.008518 25.188826-6.909562 36.631645-1.608575 8.627813-2.559097 17.328743-2.815007 26.10279 0.402144 4.825726 2.193512 9.4321 5.154753 13.307304 3.655853 5.520338 7.567615 10.857883 11.771846 15.976077 4.204231 5.191311 9.029957 9.870803 14.330943 13.892241 3.655853 3.217151 8.298786 5.22787 13.197629 5.666572a25.700646 25.700646 0 0 0 13.746007-5.666572 120.643144 120.643144 0 0 0 15.610492-12.795485c4.825726-4.679492 9.066515-9.870803 12.612692-15.610492a28.442535 28.442535 0 0 0 5.191311-13.892241 126.748419 126.748419 0 0 0-3.436502-22.702846c-2.266629-10.748207-4.752609-22.775963-7.45794-36.119826a1024.333414 1024.333414 0 0 0-8.554695-38.788599 550.754234 550.754234 0 0 0-8.042877-29.977993 59.955987 59.955987 0 0 0 13.197629-16.085753c4.204231-7.019237 9.358983-16.487896 15.464258-28.442535l0.073117 0.109675z" fill="#3F88E7" p-id="5618"></path></svg>