<?xml version="1.0" standalone="no"?><!DOCTYPE svg PUBLIC "-//W3C//DTD SVG 1.1//EN" "http://www.w3.org/Graphics/SVG/1.1/DTD/svg11.dtd"><svg t="1590232176632" class="icon" viewBox="0 0 1024 1024" version="1.1" xmlns="http://www.w3.org/2000/svg" p-id="5604" xmlns:xlink="http://www.w3.org/1999/xlink" width="200" height="200"><defs><style type="text/css"></style></defs><path d="M965.924571 179.492571c-8.265143 0-16.384 2.377143-23.332571 6.802286l-194.779429 124.050286-201.618285-256.877714a43.446857 43.446857 0 0 0-68.388572 0L276.187429 310.345143 81.408 186.294857a43.446857 43.446857 0 0 0-23.332571-6.802286c-31.744 0-57.563429 25.417143-57.563429 56.649143 0 2.486857 0.219429 4.973714 0.621714 7.424l117.284572 675.913143c2.56 28.891429 27.318857 51.565714 57.344 51.565714h672.475428c30.025143 0 54.747429-22.674286 57.344-51.565714L1022.902857 243.565714a43.52 43.52 0 0 0 0.621714-7.424c0-31.232-25.819429-56.649143-57.563428-56.649143z m-290.304 375.588572l-126.646857 202.715428c-8.265143 13.165714-22.418286 20.443429-36.937143 20.443429h-0.109714c-14.482286 0-28.635429-7.241143-36.900571-20.443429L348.379429 555.154286a43.446857 43.446857 0 1 1 73.691428-46.08L512 652.982857l89.929143-143.872a43.446857 43.446857 0 1 1 73.691428 46.043429z" fill="#FCD002" p-id="5605"></path></svg>