<?xml version="1.0" standalone="no"?><!DOCTYPE svg PUBLIC "-//W3C//DTD SVG 1.1//EN" "http://www.w3.org/Graphics/SVG/1.1/DTD/svg11.dtd"><svg t="1590231702542" class="icon" viewBox="0 0 1024 1024" version="1.1" xmlns="http://www.w3.org/2000/svg" p-id="5470" xmlns:xlink="http://www.w3.org/1999/xlink" width="200" height="200"><defs><style type="text/css"></style></defs><path d="M669.001143 563.2l-215.04 201.398857c-6.802286 6.802286-20.48 10.24-30.72 10.24-10.24 0-20.48-6.838857-30.72-13.677714-6.802286-6.802286-10.24-20.48-10.24-30.72 0-10.24 6.838857-20.48 13.677714-30.72l180.882286-167.241143-177.481143-160.438857c-10.24-10.24-17.078857-27.282286-13.641143-40.96 3.401143-13.641143 13.641143-27.282286 27.282286-30.72 13.677714-3.401143 30.72 0 40.96 10.24l215.04 191.158857c10.24 6.838857 13.677714 20.48 13.677714 30.72 0 10.24-3.437714 23.881143-13.677714 30.72M512 0C228.681143 0 0 228.681143 0 512s228.681143 512 512 512 512-228.681143 512-512S795.318857 0 512 0" fill="#6F3F12" p-id="5471"></path></svg>