<?xml version="1.0" standalone="no"?><!DOCTYPE svg PUBLIC "-//W3C//DTD SVG 1.1//EN" "http://www.w3.org/Graphics/SVG/1.1/DTD/svg11.dtd"><svg t="1590231695133" class="icon" viewBox="0 0 1024 1024" version="1.1" xmlns="http://www.w3.org/2000/svg" p-id="5336" xmlns:xlink="http://www.w3.org/1999/xlink" width="200" height="200"><defs><style type="text/css"></style></defs><path d="M1002.681783 307.565714c-22.747429-28.379429-163.986286-209.737143-217.856-272.932571-16.64-19.602286-29.001143-33.097143-54.454857-34.194286-25.490286-0.987429-435.785143 0-435.785143 0-14.006857 0-32.073143 3.584-55.296 33.097143C185.273783 102.436571 63.381211 254.317714 22.238354 307.565714c-27.830857 35.108571-31.414857 85.028571 0 136.448 66.852571 84.626286 250.88 314.331429 435.785143 545.828572 26.258286 32.914286 42.752 34.157714 54.454857 34.157714 11.410286 0 27.611429-0.621714 54.454857-34.157714 183.04-229.302857 358.838857-448.512 435.712-545.828572 25.965714-34.084571 30.866286-96.073143 0.036572-136.448zM811.88864 416.512c0 6.838857-4.608 12.544-10.313143 12.544h-9.874286c-14.811429 0-13.787429 3.108571-20.918857 12.434286C719.070354 517.851429 512.734354 819.2 512.734354 819.2c-0.109714-0.365714-0.182857-0.877714-0.365714-1.28v1.28s-206.555429-301.275429-258.194286-377.673143c-7.204571-9.435429-6.070857-12.434286-20.992-12.434286h-9.947428c-5.778286 0-10.386286-5.632-10.386286-12.544V354.194286c0-6.912 4.644571-12.470857 10.386286-12.470857h103.277714c5.705143 0 13.897143 0.877714 20.662857 12.470857l165.302857 252.964571v0.914286c0.146286-0.256 0.219429-0.694857 0.365715-0.841143l165.010285-253.110857c6.802286-11.52 15.030857-12.470857 20.699429-12.470857h103.168c5.668571 0 10.313143 5.595429 10.166857 12.544v62.317714z" fill="#6F3F12" p-id="5337"></path></svg>