<?xml version="1.0" standalone="no"?><!DOCTYPE svg PUBLIC "-//W3C//DTD SVG 1.1//EN" "http://www.w3.org/Graphics/SVG/1.1/DTD/svg11.dtd"><svg t="1590294072517" class="icon" viewBox="0 0 1024 1024" version="1.1" xmlns="http://www.w3.org/2000/svg" p-id="5482" xmlns:xlink="http://www.w3.org/1999/xlink" width="200" height="200"><defs><style type="text/css"></style></defs><path d="M640.402286 583.972571v-59.026285h-260.644572v58.88h-0.365714l-56.210286 36.937143 186.185143 156.598857 186.148572-156.635429c-4.278857 177.115429-45.238857 203.593143-45.238858 203.593143-92.891429 89.856-140.909714-46.884571-140.909714-46.884571s-48.018286 136.740571-140.982857 46.884571c0 0-40.813714-26.404571-45.275429-203.52l-265.508571 174.555429A127.853714 127.853714 0 0 0 0 902.217143a83.382857 83.382857 0 0 0 68.790857 82.102857A2524.452571 2524.452571 0 0 0 512 1024c146.761143 0 293.485714-13.238857 440.210286-39.68a82.688 82.688 0 0 0 68.022857-81.371429c0-42.569143-21.394286-82.285714-56.905143-105.728l-322.925714-213.211428z" fill="#FC6002" p-id="5483"></path><path d="M752.64 554.715429c19.675429-55.588571 31.012571-83.638857 31.012571-150.674286C783.652571 180.955429 660.370286 0 508.233143 0c-152.064 0-275.382857 180.955429-275.382857 404.041143 0 67.035429 11.300571 95.085714 30.902857 150.674286H752.64z" fill="#FC6002" p-id="5484"></path></svg>