<?xml version="1.0" standalone="no"?><!DOCTYPE svg PUBLIC "-//W3C//DTD SVG 1.1//EN" "http://www.w3.org/Graphics/SVG/1.1/DTD/svg11.dtd"><svg t="1590294151962" class="icon" viewBox="0 0 1024 1024" version="1.1" xmlns="http://www.w3.org/2000/svg" p-id="6029" xmlns:xlink="http://www.w3.org/1999/xlink" width="200" height="200"><defs><style type="text/css"></style></defs><path d="M227.555556 352.711111h238.933333a79.644444 79.644444 0 0 1 79.644444 79.644445v438.044444h-398.222222V432.355556A79.644444 79.644444 0 0 1 227.555556 352.711111z" fill="#FCD002" p-id="6030"></path><path d="M171.804444 830.577778h430.08V209.351111c0-28.672-19.114667-47.786667-47.786666-47.786667H219.591111c-28.672 0-47.786667 19.114667-47.786667 47.786667V830.577778zM219.591111 113.777778h334.506667a95.857778 95.857778 0 0 1 95.573333 95.573333v669.013333H124.017778V209.351111A95.857778 95.857778 0 0 1 219.591111 113.777778z m71.68 143.36h47.786667c14.336 0 23.893333 9.557333 23.893333 23.893333s-9.557333 23.893333-23.893333 23.893333h-47.786667c-14.336 0-23.893333-9.557333-23.893333-23.893333s9.557333-23.893333 23.893333-23.893333z m143.36 0h47.786667c14.336 0 23.893333 9.557333 23.893333 23.893333s-9.557333 23.893333-23.893333 23.893333h-47.786667c-14.336 0-23.893333-9.557333-23.893333-23.893333s9.557333-23.893333 23.893333-23.893333z m-143.36 143.36h47.786667c14.336 0 23.893333 9.557333 23.893333 23.893333s-9.557333 23.893333-23.893333 23.893333h-47.786667c-14.336 0-23.893333-9.557333-23.893333-23.893333s9.557333-23.893333 23.893333-23.893333z m143.36 0h47.786667c14.336 0 23.893333 9.557333 23.893333 23.893333s-9.557333 23.893333-23.893333 23.893333h-47.786667c-14.336 0-23.893333-9.557333-23.893333-23.893333s9.557333-23.893333 23.893333-23.893333z m-143.36 143.36h47.786667c14.336 0 23.893333 9.557333 23.893333 23.893333s-9.557333 23.893333-23.893333 23.893333h-47.786667c-14.336 0-23.893333-9.557333-23.893333-23.893333s9.557333-23.893333 23.893333-23.893333z m143.36 0h47.786667c14.336 0 23.893333 9.557333 23.893333 23.893333s-9.557333 23.893333-23.893333 23.893333h-47.786667c-14.336 0-23.893333-9.557333-23.893333-23.893333s9.557333-23.893333 23.893333-23.893333z m-143.36 143.36h47.786667c14.336 0 23.893333 9.557333 23.893333 23.893333s-9.557333 23.893333-23.893333 23.893333h-47.786667c-14.336 0-23.893333-9.557333-23.893333-23.893333s9.557333-23.893333 23.893333-23.893333z m143.36 0h47.786667c14.336 0 23.893333 9.557333 23.893333 23.893333s-9.557333 23.893333-23.893333 23.893333h-47.786667c-14.336 0-23.893333-9.557333-23.893333-23.893333s9.557333-23.893333 23.893333-23.893333zM52.337778 830.577778h907.946666c14.336 0 23.893333 9.557333 23.893334 23.893333s-9.557333 23.893333-23.893334 23.893333H52.337778c-14.336 0-23.893333-9.557333-23.893334-23.893333s9.557333-23.893333 23.893334-23.893333z m669.013333-286.72h47.786667c14.336 0 23.893333 9.557333 23.893333 23.893333s-9.557333 23.893333-23.893333 23.893333h-47.786667c-14.336 0-23.893333-9.557333-23.893333-23.893333s9.557333-23.893333 23.893333-23.893333z m0 143.36h47.786667c14.336 0 23.893333 9.557333 23.893333 23.893333s-9.557333 23.893333-23.893333 23.893333h-47.786667c-14.336 0-23.893333-9.557333-23.893333-23.893333s9.557333-23.893333 23.893333-23.893333z m-71.68-238.933334V830.577778h191.146667V496.071111c0-28.672-19.114667-47.786667-47.786667-47.786667h-143.36z m-47.786667-47.786666h191.146667a95.857778 95.857778 0 0 1 95.573333 95.573333v382.293333H601.884444v-477.866666z" fill="#000000" p-id="6031"></path></svg>