<?xml version="1.0" standalone="no"?><!DOCTYPE svg PUBLIC "-//W3C//DTD SVG 1.1//EN" "http://www.w3.org/Graphics/SVG/1.1/DTD/svg11.dtd"><svg t="1590297068687" class="icon" viewBox="0 0 1024 1024" version="1.1" xmlns="http://www.w3.org/2000/svg" p-id="3217" xmlns:xlink="http://www.w3.org/1999/xlink" width="200" height="200"><defs><style type="text/css"></style></defs><path d="M291.401143 392.740571c-30.134857 0-54.564571 25.307429-54.564572 56.576s24.429714 56.612571 54.564572 56.612572 54.564571-25.344 54.564571-56.612572c0-31.268571-24.429714-56.576-54.564571-56.576z m218.258286 0c-30.134857 0-54.564571 25.307429-54.564572 56.576s24.466286 56.612571 54.564572 56.612572c30.134857 0 54.564571-25.344 54.564571-56.612572 0-31.268571-24.429714-56.576-54.564571-56.576z m218.294857 0c-30.134857 0-54.564571 25.307429-54.564572 56.576s24.429714 56.612571 54.564572 56.612572 54.564571-25.344 54.564571-56.612572c0-31.268571-24.429714-56.576-54.564571-56.576zM837.083429 109.714286H182.272C122.002286 109.714286 73.142857 160.402286 73.142857 222.939429v424.484571c0 62.537143 49.956571 120.173714 111.616 120.173714h166.290286c29.001143 30.866286 148.992 155.062857 148.992 155.062857a13.275429 13.275429 0 0 0 19.273143 0s87.844571-99.584 145.078857-155.062857h170.203428c61.659429 0 111.616-57.636571 111.616-120.173714V222.939429c0-62.537143-48.859429-113.225143-109.129142-113.225143z m55.113142 537.929143c0 31.305143-26.258286 64.146286-57.124571 64.146285H667.428571c-20.297143 0-38.546286 20.845714-38.546285 20.845715l-117.686857 122.075428-117.650286-122.038857s-22.418286-20.882286-41.654857-20.882286H184.32c-30.866286 0-57.124571-32.841143-57.124571-64.146285V222.537143c0-31.341714 24.502857-56.685714 54.637714-56.685714h655.725714c30.208 0 54.674286 25.344 54.674286 56.685714v425.106286z" fill="#9C9FA5" p-id="3218"></path></svg>