<?xml version="1.0" standalone="no"?><!DOCTYPE svg PUBLIC "-//W3C//DTD SVG 1.1//EN" "http://www.w3.org/Graphics/SVG/1.1/DTD/svg11.dtd"><svg t="1590299478932" class="icon" viewBox="0 0 1024 1024" version="1.1" xmlns="http://www.w3.org/2000/svg" p-id="3485" xmlns:xlink="http://www.w3.org/1999/xlink" width="200" height="200"><defs><style type="text/css"></style></defs><path d="M864 160c-86.688-106.752-215.2-160-352-160-136.704 0-265.28 53.248-352 160-106.688 86.56-160 215.2-160 352s53.28 265.408 160 352c86.752 106.784 215.264 160 352 160 136.768 0 265.312-53.184 352-160 106.656-86.592 160-215.232 160-352 0-136.832-53.216-265.408-160-352z m-96 384h-224v224c4 15.872-12.096 32-32 32-19.872 0-36-16.128-32-32v-224H256c-15.872 4-32-12.128-32-32 0-19.904 16.128-36 32-32h224V256c-4-15.872 12.128-32 32-32 19.904 0 36 16.128 32 32v224h224c15.872-4 32 12.128 32 32s-16.128 36-32 32z" fill="#FCD002" p-id="3486"></path></svg>