<?xml version="1.0" standalone="no"?><!DOCTYPE svg PUBLIC "-//W3C//DTD SVG 1.1//EN" "http://www.w3.org/Graphics/SVG/1.1/DTD/svg11.dtd"><svg t="1590296231078" class="icon" viewBox="0 0 1976 1024" version="1.1" xmlns="http://www.w3.org/2000/svg" p-id="2948" xmlns:xlink="http://www.w3.org/1999/xlink" width="385.9375" height="200"><defs><style type="text/css"></style></defs><path d="M0 0m105.490546 0l1248.309298 0q105.490546 0 105.490547 105.490546l0 545.029989q0 105.490546-105.490547 105.490547l-1248.309298 0q-105.490546 0-105.490546-105.490547l0-545.029989q0-105.490546 105.490546-105.490546Z" fill="#FCD002" p-id="2949"></path><path d="M369.311413 654.21959h-6.210091a56.268825 56.268825 0 0 1-48.357708-43.308635L212.331112 160.814357a57.618845 57.618845 0 0 1 112.53765-24.759363l64.12594 293.116297L538.117888 123.121805a56.268825 56.268825 0 1 1 100.711476 49.491725l-218.865208 450.096598a56.268825 56.268825 0 0 1-50.625742 31.509462zM733.330749 607.508905a56.268825 56.268825 0 0 1-56.268824 46.710685c-3.348049 0.540008-6.777099 0.540008-10.125149 0a56.268825 56.268825 0 0 1-45.576668-64.692949l79.327163-450.096597a57.078837 57.078837 0 1 1 112.510649 19.14328L733.330749 607.508905zM1243.044221 269.949957a196.346878 196.346878 0 0 1-187.922755 159.221334h-65.259956l-31.509462 178.364614a56.268825 56.268825 0 0 1-56.241825 46.710685c-3.375049 0.540008-6.777099 0.540008-10.125148 0a56.268825 56.268825 0 0 1-45.576668-64.719949l39.960586-225.048298a56.268825 56.268825 0 0 1 56.241824-47.817701h112.510649a84.403237 84.403237 0 0 0 77.08613-65.826965 40.500594 40.500594 0 0 0-7.290107-34.317503 37.692553 37.692553 0 0 0-29.835437-12.393182H982.544402a56.268825 56.268825 0 0 1 0-112.510649h112.53765A150.230202 150.230202 0 0 1 1210.967751 143.912109a153.605252 153.605252 0 0 1 32.07647 126.010848z" fill="#FFFFFF" p-id="2950"></path></svg>