<?xml version="1.0" standalone="no"?><!DOCTYPE svg PUBLIC "-//W3C//DTD SVG 1.1//EN" "http://www.w3.org/Graphics/SVG/1.1/DTD/svg11.dtd"><svg t="1592967463671" class="icon" viewBox="0 0 1024 1024" version="1.1" xmlns="http://www.w3.org/2000/svg" p-id="3634" xmlns:xlink="http://www.w3.org/1999/xlink" width="200" height="200"><defs><style type="text/css"></style></defs><path d="M788.061091 1021.277091c-10.379636 0-20.619636-2.56-29.649455-7.540364l-0.279272-0.139636-240.849455-133.492364a13.288727 13.288727 0 0 0-13.079273 0L262.981818 1012.782545a61.416727 61.416727 0 0 1-29.649454 7.563637c-12.8 0-25.088-3.909818-35.467637-11.333818a61.975273 61.975273 0 0 1-25.227636-60.136728l47.197091-287.092363a13.684364 13.684364 0 0 0-3.630546-11.589818L18.618182 446.836364a61.207273 61.207273 0 0 1-14.149818-62.580364A61.207273 61.207273 0 0 1 53.527273 343.133091l270.778182-40.866909a13.777455 13.777455 0 0 0 10.24-7.540364l122.321454-258.792727A61.672727 61.672727 0 0 1 512.442182 0.791273h0.139636c23.738182 0 45.568 14.010182 55.552 35.444363l121.227637 259.467637a13.800727 13.800727 0 0 0 10.100363 7.68l270.242909 41.658182c22.807273 3.490909 41.658182 19.293091 48.942546 41.262545 7.284364 21.992727 1.768727 45.847273-14.289455 62.440727l-198.213818 202.542546a13.684364 13.684364 0 0 0-3.653818 11.589818l44.776727 278.202182c2.839273 8.750545 3.490909 17.92 2.280727 27.368727-4.026182 30.487273-30.72 52.852364-61.486545 52.852364z m-3.909818-54.877091c1.210182 0.674909 2.56 0.930909 3.770182 0.930909h0.698181a7.330909 7.330909 0 0 0 7.400728-6.330182 8.983273 8.983273 0 0 0-0.395637-3.909818l-0.930909-2.56-49.92-309.992727a13.684364 13.684364 0 0 1 3.653818-11.636364l217.227637-221.928727a7.982545 7.982545 0 0 0 1.768727-7.68 7.493818 7.493818 0 0 0-6.074182-5.003636l-298.821818-46.126546a13.195636 13.195636 0 0 1-10.123636-7.68l-133.352728-285.463273a7.447273 7.447273 0 0 0-6.888727-4.328727 7.819636 7.819636 0 0 0-6.865454 4.328727L370.967273 343.808a13.544727 13.544727 0 0 1-10.24 7.563636L61.486545 396.404364a7.633455 7.633455 0 0 0-4.328727 12.8l216.715637 222.906181a13.684364 13.684364 0 0 1 3.630545 11.589819L225.885091 957.672727a7.68 7.68 0 0 0 3.095273 7.400728c1.629091 1.210182 3.258182 1.349818 4.328727 1.349818a6.981818 6.981818 0 0 0 3.630545-0.930909l267.403637-146.990546a13.288727 13.288727 0 0 1 13.079272 0l266.728728 147.921455z" fill="#666666" p-id="3635"></path></svg>