<?xml version="1.0" standalone="no"?><!DOCTYPE svg PUBLIC "-//W3C//DTD SVG 1.1//EN" "http://www.w3.org/Graphics/SVG/1.1/DTD/svg11.dtd"><svg t="1590296743925" class="icon" viewBox="0 0 1024 1024" version="1.1" xmlns="http://www.w3.org/2000/svg" p-id="3083" xmlns:xlink="http://www.w3.org/1999/xlink" width="200" height="200"><defs><style type="text/css"></style></defs><path d="M501.942857 898.596571c-183.917714 0-347.977143-116.041143-491.849143-342.784a62.244571 62.244571 0 0 1 0-66.742857C153.965714 262.326857 318.025143 146.285714 501.942857 146.285714s347.977143 116.041143 491.849143 342.784a62.244571 62.244571 0 0 1 0 66.742857c-143.872 226.742857-307.931429 342.784-491.849143 342.784z m0-677.083428c-152.246857 0-293.229714 98.56-423.314286 300.946286 130.084571 202.349714 271.067429 300.909714 423.314286 300.909714 152.246857 0 293.229714-98.56 423.314286-300.909714-130.084571-202.386286-271.067429-300.946286-423.314286-300.946286z m0 476.489143c-97.828571 0-177.115429-78.628571-177.115428-175.542857 0-96.950857 79.286857-175.542857 177.115428-175.542858s177.115429 78.592 177.115429 175.542858c0 96.914286-79.286857 175.542857-177.115429 175.542857z m0-75.227429c55.881143 0 101.229714-44.946286 101.229714-100.315428 0-55.405714-45.348571-100.315429-101.229714-100.315429-55.881143 0-101.229714 44.909714-101.229714 100.315429 0 55.369143 45.348571 100.315429 101.229714 100.315428z" fill="#999999" p-id="3084"></path></svg>